if (_typeface_js && _typeface_js.loadFace) _typeface_js.loadFace({"glyphs":{"0":{"ha":560,"x_min":-45,"x_max":447,"o":"m 302 524 q 259 626 316 626 l 222 626 q 151 524 165 626 l 100 123 q 143 22 86 22 l 180 22 q 250 123 237 22 l 302 524 m 296 648 q 406 602 363 648 q 438 490 447 555 l 395 157 q 333 46 387 92 q 212 0 279 0 l 106 0 q -3 46 39 0 q -37 157 -45 92 l 7 490 q 69 602 16 555 q 190 648 123 648 l 296 648 z "},"1":{"ha":369,"x_min":-68,"x_max":258,"o":"m 258 22 l 255 0 l -68 0 l -66 22 l 26 22 l 96 558 l -20 508 l -26 527 l 248 646 l 244 623 l 244 622 l 222 457 q 222 456 222 457 l 166 22 l 258 22 z "},"2":{"ha":561,"x_min":-54,"x_max":450,"o":"m 182 302 q 112 200 125 302 l 89 22 l 181 22 q 252 124 238 22 l 260 195 l 401 195 l 376 0 l -54 0 l -33 167 q 29 278 -24 232 q 151 323 83 323 l 222 323 q 292 426 279 323 l 305 524 q 261 626 318 626 l 236 626 q 166 524 179 626 l 157 453 l 16 453 l 37 610 q 106 642 64 635 q 182 648 146 648 l 298 648 q 408 602 366 648 q 441 490 450 555 l 437 459 q 375 349 429 394 q 254 302 321 302 l 182 302 z "},"3":{"ha":580,"x_min":-71,"x_max":448,"o":"m 411 265 q 288 119 397 158 q 373 -28 387 80 l 369 -58 q 307 -170 360 -123 q 186 -216 253 -216 l 79 -216 q -30 -170 12 -216 q -63 -58 -71 -123 l -59 -28 q -53 0 -57 -14 l 85 0 l 73 -92 q 117 -194 60 -194 l 154 -194 q 224 -92 211 -194 l 237 6 q 193 108 250 108 l 98 108 l 101 130 l 196 130 q 267 232 253 130 l 304 524 q 260 626 317 626 l 223 626 q 153 524 166 626 l 141 431 l 1 431 l 9 490 q 71 602 17 555 q 192 648 124 648 l 298 648 q 407 602 365 648 q 440 490 448 555 l 411 265 z "},"4":{"ha":529,"x_min":-73,"x_max":450,"o":"m 218 237 l 250 475 l -18 237 l 218 237 m 422 22 l 420 0 l 96 0 l 99 22 l 191 22 l 216 216 l -73 216 l 412 646 l 408 616 l 408 615 l 387 457 q 387 456 387 456 l 359 237 l 450 237 l 448 216 l 356 216 l 331 22 l 422 22 z "},"5":{"ha":542,"x_min":-73,"x_max":456,"o":"m 229 130 q 338 83 296 130 q 372 -28 380 37 l 368 -58 q 305 -170 359 -123 q 184 -216 252 -216 l 78 -216 q -31 -170 11 -216 q -64 -58 -73 -123 l -60 -28 q -54 0 -58 -14 l 83 0 l 72 -92 q 115 -194 58 -194 l 153 -194 q 222 -92 210 -194 l 235 6 q 192 108 249 108 l 155 108 q 150 108 153 108 l 150 108 l 98 108 l 98 108 l -43 108 l 17 561 q 18 599 20 583 q 6 648 16 621 l 456 648 l 432 455 l 292 455 l 303 547 q 269 625 313 625 l 269 626 l 155 626 q 159 604 158 613 q 157 561 159 587 l 100 130 l 229 130 z "},"6":{"ha":574,"x_min":-42,"x_max":477,"o":"m 210 518 q 140 416 153 518 l 102 124 q 146 22 89 22 l 183 22 q 253 124 240 22 l 291 416 q 248 518 304 518 l 210 518 m 321 648 l 334 739 q 290 842 347 842 l 252 842 q 182 739 195 842 l 156 538 q 179 540 169 540 l 285 540 q 394 494 352 540 q 427 382 435 448 l 398 157 q 336 46 389 92 q 215 0 282 0 l 109 0 q -1 46 41 0 q -34 157 -42 92 l 38 706 q 100 817 46 771 q 221 863 153 863 l 327 863 q 436 817 394 863 q 469 706 477 771 l 462 648 l 321 648 z "},"7":{"ha":527,"x_min":-192,"x_max":446,"o":"m 128 -69 q 41 -173 100 -132 q -86 -214 -20 -214 l -192 -214 l -186 -212 l -118 -197 q -57 -155 -79 -185 l 290 626 l 207 626 l 207 625 q 151 547 161 625 l 139 455 l -1 455 l 24 648 l 446 648 l 128 -69 z "},"8":{"ha":572,"x_min":-49,"x_max":471,"o":"m 259 222 q 216 323 273 323 l 178 323 q 109 222 121 323 l 96 124 q 139 22 82 22 l 176 22 q 246 124 233 22 l 259 222 m 138 448 q 181 345 124 345 l 218 345 q 289 448 275 345 l 327 739 q 283 842 340 842 l 245 842 q 176 739 189 842 l 138 448 m 433 481 q 311 334 419 374 q 395 188 409 296 l 391 157 q 329 46 382 92 q 208 0 275 0 l 102 0 q -7 46 35 0 q -41 157 -49 92 l -37 188 q 87 334 -22 296 q 2 481 -12 374 l 31 706 q 93 817 39 771 q 214 863 146 863 l 320 863 q 429 817 387 863 q 463 706 471 771 l 433 481 z "},"9":{"ha":584,"x_min":-69,"x_max":450,"o":"m 198 130 q 268 231 254 130 l 307 524 q 262 626 319 626 l 225 626 q 155 524 168 626 l 117 232 q 161 130 104 130 l 198 130 m 371 -58 q 309 -170 362 -123 q 188 -216 255 -216 l 81 -216 q -28 -170 14 -216 q -61 -58 -69 -123 l -53 0 l 87 0 l 75 -92 q 119 -194 62 -194 l 156 -194 q 226 -92 213 -194 l 252 110 q 230 108 239 108 l 123 108 q 15 154 56 108 q -18 265 -27 200 l 11 490 q 73 602 19 555 q 194 648 126 648 l 300 648 q 409 602 367 648 q 442 490 450 555 l 371 -58 z "}," ":{"ha":345,"x_min":0,"x_max":0,"o":""},"!":{"ha":308,"x_min":-37,"x_max":210,"o":"m 68 151 q 104 136 91 151 q 115 98 118 120 l 109 54 q 89 16 106 31 q 49 0 71 0 l 12 0 q -23 16 -9 0 q -34 54 -37 31 l -28 98 q -7 136 -25 120 q 32 151 10 151 l 68 151 m 161 863 q 197 848 183 863 q 208 810 210 832 l 201 766 q 152 501 193 701 q 83 259 102 259 l 46 259 q 40 501 28 259 q 59 766 50 701 l 64 810 q 85 848 67 832 q 125 863 102 863 l 161 863 z "},"\"":{"ha":456,"x_min":62,"x_max":400,"o":"m 206 968 q 149 889 186 922 l 65 813 l 68 818 l 111 877 q 130 928 128 903 l 111 928 q 76 943 90 928 q 65 981 62 959 l 71 1025 q 92 1063 74 1048 q 131 1078 109 1078 l 168 1078 q 203 1063 190 1078 q 214 1025 217 1048 l 206 968 m 389 968 q 332 889 369 922 l 248 813 l 252 818 l 294 877 q 313 928 311 903 l 294 928 q 259 943 273 928 q 248 981 245 959 l 254 1025 q 275 1063 257 1048 q 314 1078 292 1078 l 351 1078 q 387 1063 373 1078 q 397 1025 400 1048 l 389 968 z "},"&":{"ha":838,"x_min":-40,"x_max":736,"o":"m 717 0 l 611 0 q 502 46 544 0 q 469 157 460 92 l 490 323 l 259 323 q 259 323 259 323 l 187 323 q 117 222 130 323 l 104 123 q 148 22 91 22 l 185 22 q 255 123 242 22 l 267 216 l 405 216 q 404 188 406 202 l 400 157 q 338 46 391 92 q 217 0 284 0 l 111 0 q 1 46 43 0 q -32 157 -40 92 l -28 188 q 96 334 -14 296 q 11 481 -3 374 l 40 706 q 102 817 48 771 q 223 863 155 863 l 329 863 q 438 817 396 863 q 471 706 479 771 l 464 652 l 324 652 l 335 739 q 292 842 349 842 l 254 842 q 184 739 197 842 l 146 448 q 190 345 133 346 l 493 345 l 526 600 l 669 621 l 633 345 l 736 345 l 734 323 l 631 323 l 605 123 q 648 18 593 35 l 712 1 l 717 0 z "},"'":{"ha":271,"x_min":62,"x_max":217,"o":"m 206 968 q 149 889 186 922 l 65 813 l 68 818 l 111 877 q 130 928 128 903 l 111 928 q 76 943 90 928 q 65 981 62 959 l 71 1025 q 92 1063 74 1048 q 131 1078 109 1078 l 168 1078 q 203 1063 190 1078 q 214 1025 217 1048 l 206 968 z "},"+":{"ha":688,"x_min":59,"x_max":641,"o":"m 296 439 l 59 439 l 71 534 l 309 534 l 341 784 l 342 785 l 436 785 l 404 534 l 640 534 l 641 533 l 629 439 l 391 439 l 359 188 l 264 188 l 296 439 z "},",":{"ha":288,"x_min":-34,"x_max":121,"o":"m 110 40 q 53 -39 90 -5 l -31 -115 l -28 -109 l 15 -51 q 34 0 32 -24 l 15 0 q -20 16 -7 0 q -31 54 -34 31 l -25 98 q -5 136 -22 120 q 35 151 13 151 l 71 151 q 107 136 94 151 q 117 98 121 120 l 110 40 z "},"-":{"ha":557,"x_min":-18,"x_max":408,"o":"m 399 291 q 379 253 397 269 q 339 237 361 237 l 31 237 q -4 253 9 237 q -15 291 -18 269 l -9 335 q 12 373 -6 357 q 51 389 29 389 l 359 389 q 395 373 381 389 q 405 335 408 357 l 399 291 z "},".":{"ha":315,"x_min":-41,"x_max":113,"o":"m 104 54 q 84 16 102 31 q 44 0 66 0 l 7 0 q -28 16 -14 0 q -39 54 -41 31 l -33 98 q -12 136 -30 120 q 27 151 5 151 l 64 151 q 100 136 86 151 q 110 98 113 120 l 104 54 z "},":":{"ha":260,"x_min":-55,"x_max":164,"o":"m 91 54 q 71 16 88 31 q 31 0 53 0 l -6 0 q -41 16 -28 0 q -52 54 -55 31 l -46 98 q -26 136 -43 120 q 14 151 -8 151 l 50 151 q 86 136 73 151 q 96 98 100 120 l 91 54 m 155 550 q 135 512 153 528 q 96 496 117 496 l 59 496 q 23 512 37 496 q 12 550 9 528 l 18 594 q 39 632 21 616 q 78 648 56 648 l 115 648 q 151 632 137 648 q 161 594 164 616 l 155 550 z "},";":{"ha":260,"x_min":-54,"x_max":163,"o":"m 155 550 q 134 512 152 528 q 95 496 117 496 l 58 496 q 22 512 36 496 q 12 550 9 528 l 18 594 q 38 632 20 616 q 78 648 56 648 l 115 648 q 150 632 136 648 q 161 594 163 616 l 155 550 m 97 98 q 87 136 100 120 q 51 151 73 151 l 14 151 q -25 136 -7 151 q -45 98 -43 120 l -52 54 q -41 16 -54 31 q -5 0 -27 0 l 14 0 q -5 -51 12 -24 l -48 -109 l -52 -115 l 33 -39 q 90 40 69 -5 l 97 98 z "},"?":{"ha":554,"x_min":12,"x_max":472,"o":"m 321 863 q 430 817 389 863 q 463 706 472 771 l 446 568 q 399 471 438 514 q 307 416 361 430 l 307 416 q 250 308 262 402 l 243 259 l 103 259 l 105 275 q 157 376 113 332 q 259 429 200 419 q 299 523 290 450 l 328 739 q 284 842 341 842 l 247 842 q 176 739 190 842 l 151 540 l 13 540 q 14 568 12 554 l 32 706 q 94 817 41 771 q 215 863 148 863 l 321 863 m 179 151 q 214 136 201 151 q 225 98 228 120 l 219 54 q 199 16 216 31 q 159 0 181 0 l 123 0 q 87 16 100 0 q 77 54 74 31 l 82 98 q 102 136 85 120 q 142 151 120 151 l 179 151 z "},"A":{"ha":570,"x_min":-207,"x_max":476,"o":"m 281 349 l 332 739 q 288 842 345 842 l 251 842 q 180 739 194 842 l 130 349 l 281 349 m 459 22 l 456 0 l 147 0 l 151 22 l 238 22 l 278 327 l 127 327 l 84 0 l 84 0 l 82 -15 q 20 -126 74 -81 q -101 -172 -33 -172 l -207 -172 l -201 -171 l -133 -155 q -62 -49 -74 -137 l -14 327 l -90 327 l -87 349 l -11 349 l -5 394 q -3 417 -3 406 l -1 417 l 36 706 q 98 817 44 771 q 219 863 152 863 l 325 863 q 434 817 393 863 q 467 706 476 771 l 378 22 l 459 22 z "},"B":{"ha":574,"x_min":-144,"x_max":479,"o":"m 334 739 q 297 841 347 836 l 297 842 l 198 842 l 189 770 q 184 739 186 755 l 146 448 q 143 417 144 431 l 134 345 l 233 345 l 233 346 q 296 448 284 351 l 334 739 m 267 222 q 230 323 280 319 l 230 323 l 131 323 l 121 252 q 116 222 118 237 l 104 123 q 147 22 90 22 l 184 22 q 254 123 241 22 l 267 222 m 441 481 q 318 334 427 374 q 403 188 417 296 l 399 157 q 337 46 391 92 q 216 0 283 0 l -144 0 l -142 22 l -50 22 l 9 475 l 9 475 q 9 481 10 484 l 47 770 q 50 814 52 793 q 44 842 48 826 l -35 842 l -33 863 l 211 863 l 211 863 q 222 863 220 863 l 328 863 q 437 817 395 863 q 471 706 479 771 l 441 481 z "},"C":{"ha":570,"x_min":-43,"x_max":477,"o":"m 405 216 l 397 157 q 335 46 389 92 q 214 0 281 0 l 108 0 q -1 46 41 0 q -35 157 -43 92 l 37 706 q 99 817 45 771 q 220 863 153 863 l 326 863 q 435 817 393 863 q 469 706 477 771 l 447 539 l 307 539 l 333 739 q 289 842 346 842 l 252 842 q 182 739 195 842 l 102 123 q 145 22 88 22 l 182 22 q 252 123 239 22 l 264 216 l 405 216 z "},"D":{"ha":570,"x_min":-147,"x_max":476,"o":"m 101 123 q 144 22 87 22 l 182 22 q 210 29 197 22 q 252 123 242 49 l 332 739 q 334 776 334 760 q 334 777 334 780 q 334 785 334 781 q 334 787 334 784 q 334 794 334 790 q 333 797 333 796 q 332 803 333 800 q 332 805 332 805 q 330 810 331 808 q 330 812 330 812 q 328 817 329 814 q 327 819 328 818 q 325 823 326 821 q 323 824 324 823 q 321 827 323 826 q 320 829 321 828 q 318 831 319 830 q 317 832 317 831 q 313 835 315 834 l 313 836 q 309 837 311 837 q 308 838 309 837 q 304 839 306 839 q 294 841 300 841 q 288 842 291 842 l 195 842 l 186 770 q 181 739 183 755 l 101 123 m 372 90 q 364 79 368 84 l 364 79 q 324 38 347 56 l 323 38 q 323 37 323 37 q 315 32 321 35 q 310 28 310 28 q 302 24 307 27 q 296 20 298 22 q 289 17 294 19 q 281 14 286 16 q 275 12 278 13 q 267 9 271 10 q 260 7 262 7 q 251 4 257 5 q 245 3 245 3 q 233 1 241 2 q 229 1 227 1 q 213 0 221 0 l -147 0 l -144 22 l -53 22 l 45 770 q 47 814 49 793 q 41 842 45 826 l -38 842 l -35 863 l 208 863 l 208 863 q 220 863 217 863 l 326 863 q 435 817 393 863 q 468 706 476 771 l 397 157 q 379 103 393 130 l 379 103 q 372 91 376 97 l 372 90 z "},"E":{"ha":570,"x_min":-144,"x_max":488,"o":"m 323 671 l 335 763 q 300 841 345 840 l 300 842 l 198 842 l 189 770 q 184 739 186 755 l 133 349 l 283 349 l 279 327 l 130 327 l 104 123 q 147 22 90 22 l 193 22 l 193 22 q 249 100 239 23 l 261 193 l 401 193 l 376 0 l -144 0 l -142 22 l -50 22 l 47 770 q 50 814 52 793 q 44 842 48 826 l -35 842 l -33 863 l 488 863 l 463 671 l 323 671 z "},"F":{"ha":498,"x_min":-146,"x_max":486,"o":"m 321 671 l 333 763 q 298 841 343 840 l 298 842 l 196 842 l 187 770 q 182 739 184 755 l 131 349 l 281 349 l 277 327 l 128 327 l 88 22 l 180 22 l 177 0 l -146 0 l -144 22 l -52 22 l 45 770 q 47 814 50 793 q 42 842 46 826 l -37 842 l -35 863 l 486 863 l 461 671 l 321 671 z "},"G":{"ha":576,"x_min":-100,"x_max":483,"o":"m 44 -308 q 47 -383 37 -357 q 87 -410 58 -410 l 125 -410 q 195 -308 182 -410 l 230 -41 q 151 -69 233 -39 q 70 -118 77 -96 q 68 -124 68 -121 l 44 -308 m 319 647 l 331 739 q 288 842 345 842 l 250 842 q 180 739 193 842 l 100 123 q 144 22 87 22 l 181 22 q 248 107 233 22 q 249 115 249 113 l 250 115 l 277 323 l 417 323 l 340 -274 q 277 -385 331 -339 q 157 -431 224 -431 l 50 -431 q -59 -385 -17 -431 q -92 -274 -100 -339 l -86 -231 q -31 -117 -77 -157 q 135 -43 6 -86 q 221 -14 199 -22 q 235 0 231 -9 l 106 0 q -3 46 39 0 q -36 157 -44 92 l 35 706 q 98 817 44 771 q 218 863 151 863 l 325 863 q 347 861 334 863 l 347 863 q 422 857 382 864 q 483 826 461 850 l 459 647 l 319 647 z "},"H":{"ha":576,"x_min":-149,"x_max":564,"o":"m 467 22 l 465 0 l 184 0 l 187 22 l 235 22 l 275 327 l 125 327 l 119 280 l 119 280 l 85 22 l 155 22 l 153 0 l -149 0 l -146 22 l -55 22 l -15 327 l -100 327 l -98 349 l -12 349 l -2 429 l -3 429 q 0 452 -1 441 l 58 895 q 15 1002 69 984 l -50 1017 l -54 1019 l 52 1019 q 161 973 119 1019 q 194 862 202 927 l 178 742 l 179 742 l 128 349 l 278 349 l 333 770 q 335 814 337 793 q 330 842 334 826 l 294 842 l 296 863 l 496 863 l 496 863 q 508 863 505 863 l 564 863 l 562 842 l 484 842 l 475 770 q 469 739 471 755 l 376 22 l 467 22 z "},"I":{"ha":289,"x_min":-148,"x_max":275,"o":"m 178 22 l 176 0 l -148 0 l -145 22 l -54 22 l 5 475 l 5 475 l 44 770 q 46 814 48 793 q 41 842 45 826 l -39 842 l -36 863 l 208 863 l 208 863 q 219 863 216 863 l 275 863 l 273 842 l 195 842 l 186 770 q 180 739 182 755 l 87 22 l 178 22 z "},"J":{"ha":281,"x_min":-242,"x_max":273,"o":"m 273 863 l 270 842 l 193 842 l 183 770 q 178 739 180 755 l 131 378 q 130 361 131 368 l 47 -274 q -15 -385 39 -339 q -136 -431 -68 -431 l -242 -431 l -237 -430 l -168 -414 q -98 -308 -109 -396 l -53 38 l -54 38 l 41 770 q 43 814 46 793 q 39 842 43 826 l -41 842 l -38 863 l 205 863 l 205 863 q 216 863 214 863 l 273 863 z "},"K":{"ha":557,"x_min":-146,"x_max":550,"o":"m 481 0 l 437 0 l 437 0 l 275 0 l 127 322 l 88 22 l 180 22 l 177 0 l -146 0 l -144 22 l -52 22 l 54 842 l -37 842 l -35 863 l 290 863 l 286 842 l 195 842 l 131 351 l 420 842 l 331 842 l 334 863 l 550 863 l 547 842 l 444 842 l 224 467 l 427 22 l 484 22 l 481 0 z "},"L":{"ha":525,"x_min":-144,"x_max":401,"o":"m 401 193 l 376 0 l -144 0 l -142 22 l -50 22 l 47 770 q 50 814 52 793 q 44 842 48 826 l -35 842 l -33 863 l 211 863 l 211 863 q 222 863 220 863 l 279 863 l 276 842 l 198 842 l 189 770 q 184 739 186 755 l 104 123 q 147 22 90 22 l 193 22 l 193 22 q 249 100 239 23 l 261 193 l 401 193 z "},"M":{"ha":873,"x_min":-208,"x_max":766,"o":"m 749 22 l 747 0 l 437 0 l 440 22 l 528 22 l 621 739 q 578 842 635 842 l 541 842 q 471 739 484 842 l 374 0 l 234 0 l 330 739 q 286 842 343 842 l 250 842 q 179 739 193 842 l 83 0 l 83 0 l 81 -15 q 19 -126 73 -81 q -102 -172 -35 -172 l -208 -172 l -203 -171 l -134 -155 q -64 -49 -75 -137 l 35 706 q 97 817 43 771 q 218 863 151 863 l 323 863 q 413 835 374 863 q 509 863 458 863 l 615 863 q 724 817 682 863 q 758 706 766 771 l 669 22 l 749 22 z "},"N":{"ha":584,"x_min":-144,"x_max":480,"o":"m 474 22 l 471 0 l 239 0 l 242 22 l 242 22 l 275 281 l 275 281 l 336 741 q 292 844 349 844 l 255 844 q 184 741 198 844 l 91 22 l 182 22 l 180 0 l -144 0 l -141 22 l -50 22 l 48 769 q 50 814 52 792 q 45 842 49 825 l -35 842 l -32 863 l 162 863 l 162 862 l 180 862 q 189 837 185 850 l 189 836 q 197 843 191 837 q 212 856 204 851 q 241 865 224 864 l 329 865 q 438 819 397 865 q 471 708 480 773 l 382 22 l 474 22 z "},"O":{"ha":574,"x_min":-43,"x_max":476,"o":"m 332 739 q 288 842 345 842 l 251 842 q 181 739 194 842 l 123 294 l 123 294 l 101 123 q 144 22 87 22 l 182 22 q 252 123 239 22 l 332 739 m 326 863 q 435 817 393 863 q 468 706 476 771 l 397 157 q 334 46 388 92 q 214 0 281 0 l 107 0 q -2 46 40 0 q -35 157 -43 92 l 37 706 q 98 817 45 771 q 220 863 152 863 l 326 863 z "},"P":{"ha":537,"x_min":-144,"x_max":479,"o":"m 335 739 q 298 841 348 836 l 298 842 l 199 842 l 190 770 q 184 739 186 755 l 146 448 q 190 345 133 345 l 227 345 q 297 448 284 345 l 335 739 m 329 863 q 438 817 396 863 q 471 706 479 771 l 442 481 q 380 370 433 416 q 258 323 326 323 l 153 323 q 130 326 143 323 l 91 22 l 182 22 l 180 0 l -144 0 l -141 22 l -50 22 l 9 475 l 10 475 q 10 481 11 483 l 48 770 q 50 814 52 793 q 45 842 49 826 l -35 842 l -32 863 l 212 863 l 212 863 q 223 863 220 863 l 329 863 z "},"Q":{"ha":576,"x_min":-43,"x_max":477,"o":"m 136 22 q 100 115 143 98 q 136 22 92 30 m 103 136 l 128 136 q 244 81 202 136 q 252 123 250 100 l 333 739 q 289 842 346 842 l 252 842 q 182 739 195 842 l 103 136 m 380 -171 l 274 -171 q 165 -125 207 -171 q 132 -14 123 -79 l 134 0 l 108 0 q -1 46 41 0 q -35 157 -43 92 l 37 706 q 99 817 45 771 q 220 863 153 863 l 326 863 q 435 817 393 863 q 469 706 477 771 l 397 157 q 275 11 383 50 l 267 -47 q 311 -154 256 -136 l 374 -170 l 380 -171 z "},"R":{"ha":574,"x_min":-146,"x_max":488,"o":"m 333 739 q 296 841 346 836 l 296 842 l 197 842 l 188 770 q 182 739 184 755 l 144 448 q 142 417 142 431 l 132 345 l 231 345 l 231 346 q 295 448 283 351 l 333 739 m 488 -171 l 382 -171 q 275 -127 317 -171 q 239 -19 234 -83 l 239 -20 l 240 -9 q 225 313 278 279 q 181 323 208 323 q 128 326 134 325 l 89 22 l 180 22 l 178 0 l -146 0 l -143 22 l -52 22 l 7 475 l 8 475 q 8 481 9 483 l 46 770 q 48 814 50 793 q 43 842 47 826 l -37 842 l -34 863 l 210 863 l 210 863 q 221 863 218 863 l 327 863 q 436 817 394 863 q 469 706 477 771 l 440 481 q 391 382 433 425 q 292 328 349 339 q 379 274 347 317 q 404 173 412 230 l 385 28 l 386 28 l 376 -47 q 419 -154 364 -136 l 483 -170 l 488 -171 z "},"S":{"ha":532,"x_min":-48,"x_max":473,"o":"m 168 817 q 125 751 130 791 q 268 503 115 672 q 406 217 421 334 q 338 64 394 123 q 175 0 275 0 l 170 0 l 170 0 l 87 0 q 12 6 52 -1 q -48 37 -27 12 l -28 194 l 113 194 l 103 123 q 147 22 90 22 l 172 22 l 172 22 l 172 22 q 307 138 292 25 q 267 237 311 176 q 164 357 267 237 q 33 670 16 533 q 100 808 43 755 q 244 863 157 863 l 337 863 q 412 857 372 864 q 473 826 451 850 l 452 669 l 312 669 l 321 739 q 277 842 334 842 q 245 842 245 842 q 168 817 201 842 z "},"T":{"ha":555,"x_min":-37,"x_max":509,"o":"m 484 671 l 451 671 l 460 741 q 435 813 466 781 q 385 841 408 840 l 385 842 l 317 842 l 308 770 q 302 739 304 755 l 209 22 l 300 22 l 298 0 l -26 0 l -23 22 l 68 22 l 127 475 l 127 475 l 166 770 q 168 814 170 793 q 163 842 167 826 l 106 842 l 106 841 q 49 813 82 840 q 4 741 9 781 l -5 671 l -37 671 l -12 863 l 509 863 l 484 671 z "},"U":{"ha":695,"x_min":71,"x_max":695,"o":"m 77 844 l 80 865 l 312 865 l 309 844 l 309 844 l 216 123 q 259 22 202 22 l 296 22 q 366 123 353 22 l 460 844 l 368 844 l 371 865 l 695 865 l 692 844 l 600 844 l 503 96 q 501 51 498 73 q 507 24 503 39 l 585 24 l 583 2 l 389 2 l 389 3 l 371 3 q 363 28 366 14 q 362 28 362 28 q 355 22 361 28 q 339 9 347 14 q 311 0 327 1 l 222 0 q 113 46 155 0 q 79 157 71 92 l 169 844 l 77 844 z "},"V":{"ha":580,"x_min":-19,"x_max":604,"o":"m 601 842 l 507 842 l 210 0 l 188 0 l 188 0 l 64 842 l -19 842 l -16 863 l 307 863 l 304 842 l 211 842 l 281 281 l 484 842 l 385 842 l 388 863 l 604 863 l 601 842 z "},"W":{"ha":871,"x_min":-45,"x_max":929,"o":"m 929 1036 l 924 1034 l 855 1019 q 785 912 796 1000 l 727 469 q 725 446 726 458 l 724 446 l 686 157 q 625 46 678 92 q 503 0 570 0 l 397 0 q 309 28 347 0 q 212 0 263 0 l 106 0 q -3 46 39 0 q -37 157 -45 92 l 53 842 l -28 842 l -25 863 l 283 863 l 281 842 l 193 842 l 100 123 q 143 22 86 22 l 180 22 q 250 123 237 22 l 347 863 l 487 863 l 391 123 q 435 22 378 22 l 471 22 q 542 123 528 22 l 640 878 q 702 989 648 943 q 823 1036 755 1036 l 929 1036 z "},"X":{"ha":551,"x_min":-106,"x_max":502,"o":"m 258 555 l 349 22 l 393 22 l 390 0 l 206 0 l 151 326 l 7 22 l 99 22 l 96 0 l -106 0 l -104 22 l -15 22 l 144 361 l 62 842 l 3 842 l 5 863 l 205 863 l 252 590 l 370 842 l 298 842 l 300 863 l 502 863 l 499 842 l 393 842 l 258 555 z "},"Y":{"ha":576,"x_min":-96,"x_max":584,"o":"m 49 -308 q 52 -383 42 -357 q 92 -410 62 -410 l 130 -410 q 199 -308 186 -410 l 235 -41 q 155 -69 237 -39 q 75 -118 82 -96 q 73 -124 73 -121 l 49 -308 m 584 865 l 581 844 l 490 844 l 345 -274 q 282 -385 336 -339 q 161 -431 229 -431 l 55 -431 q -54 -385 -12 -431 q -87 -274 -96 -339 l -81 -231 q -26 -117 -72 -157 q 140 -43 11 -86 q 226 -14 204 -22 q 239 0 236 -9 l 111 0 q 2 46 44 0 q -31 157 -39 92 l 58 844 l -33 844 l -31 865 l 201 865 l 198 844 l 198 844 l 104 123 q 149 22 92 22 l 186 22 q 253 107 238 22 q 254 115 254 113 l 254 115 q 256 123 256 121 l 349 844 l 258 844 l 260 865 l 584 865 z "},"Z":{"ha":540,"x_min":-58,"x_max":497,"o":"m 267 193 l 408 193 l 385 14 l 385 14 l 382 0 l -58 0 l 334 842 l 243 842 l 243 841 q 187 763 197 840 l 176 671 l 35 671 l 60 863 l 497 863 l 105 22 l 199 22 l 200 22 q 256 100 245 23 l 267 193 z "},"^":{"ha":443,"x_min":72,"x_max":448,"o":"m 433 806 q 447 772 448 793 q 431 736 446 752 l 429 735 q 391 717 414 719 q 355 728 370 715 l 258 812 l 151 737 q 111 720 131 722 q 81 730 90 718 l 81 731 q 80 762 72 743 q 109 794 89 780 l 243 890 q 275 905 258 901 q 302 905 291 909 q 333 893 321 904 l 433 806 z "},"`":{"ha":437,"x_min":117,"x_max":412,"o":"m 154 916 q 188 943 166 935 q 228 940 210 949 l 259 924 q 346 861 290 909 q 402 788 412 805 l 378 747 q 280 753 367 730 q 176 789 207 772 l 145 804 q 122 835 126 814 q 130 876 117 856 l 154 916 z "},"a":{"ha":536,"x_min":-64,"x_max":428,"o":"m 161 22 q 231 123 218 22 l 267 391 q 187 363 269 393 q 106 313 114 335 q 104 307 105 311 l 81 123 q 124 22 67 22 l 161 22 m 236 1 q 228 26 231 12 q 209 9 215 13 q 180 0 196 1 l 87 0 q -22 46 20 0 q -56 157 -64 92 l -50 201 q 6 314 -40 274 q 172 389 43 345 q 258 418 235 410 q 272 433 269 422 l 283 524 q 240 626 297 626 l 203 626 q 132 524 146 626 l 121 431 l -20 431 l -12 490 q 50 602 -3 555 q 171 648 104 648 l 277 648 q 387 602 345 648 q 419 490 428 555 l 389 258 l 389 258 l 368 94 q 366 49 363 71 q 377 0 368 27 l 236 1 z "},"b":{"ha":572,"x_min":-53,"x_max":446,"o":"m 302 524 q 258 626 315 626 l 221 626 q 151 524 164 626 l 98 123 q 142 22 85 22 l 180 22 q 250 123 237 22 l 302 524 m 295 648 q 404 602 363 648 q 437 490 446 555 l 394 157 q 332 46 386 92 q 211 0 279 0 l 83 0 q 7 6 47 -1 q -53 37 -32 12 l 80 1057 l -12 1057 l -9 1079 l 223 1079 l 166 646 q 189 648 179 648 l 295 648 z "},"c":{"ha":570,"x_min":-46,"x_max":453,"o":"m 401 216 l 378 37 q 309 6 351 12 q 233 0 269 -1 l 104 0 q -5 46 37 0 q -38 157 -46 92 l 5 490 q 68 602 14 555 q 189 648 121 648 l 317 648 q 392 642 353 648 q 453 610 431 635 l 429 431 l 289 431 l 301 524 q 258 626 315 626 l 220 626 q 150 524 163 626 l 98 123 q 142 22 85 22 l 179 22 q 249 123 236 22 l 261 216 l 401 216 z "},"d":{"ha":572,"x_min":-46,"x_max":514,"o":"m 301 522 q 258 624 315 624 l 220 624 q 150 522 163 624 l 98 122 q 142 20 85 20 l 179 20 q 249 122 236 20 l 301 522 m 468 22 l 465 0 l 271 0 l 271 1 l 254 1 q 245 26 249 13 q 245 26 245 26 q 237 20 243 26 q 222 7 229 12 q 193 -2 209 -1 l 104 -2 q -5 44 37 -2 q -38 155 -46 90 l 5 488 q 68 600 14 553 q 189 646 121 646 l 295 646 q 317 644 304 646 l 371 1057 l 279 1057 l 282 1079 l 514 1079 l 386 94 q 384 49 381 71 q 389 22 385 37 l 468 22 z "},"e":{"ha":544,"x_min":-47,"x_max":445,"o":"m 220 626 q 149 524 163 626 l 127 349 l 278 349 l 300 524 q 257 626 314 626 l 220 626 m 124 327 l 98 123 q 141 22 84 22 l 178 22 q 248 123 235 22 l 260 216 l 401 216 l 393 157 q 331 46 385 92 q 210 0 277 0 l 104 0 q -5 46 37 0 q -39 157 -47 92 l 5 490 q 67 602 14 555 q 188 648 121 648 l 294 648 q 404 602 361 648 q 436 490 445 555 l 415 327 l 124 327 z "},"f":{"ha":288,"x_min":-241,"x_max":353,"o":"m 279 1061 q 208 956 220 1044 l 168 648 l 266 648 l 262 626 l 165 626 l 117 253 q 115 231 116 242 l 113 231 l 47 -274 q -14 -385 39 -339 q -136 -431 -68 -431 l -241 -431 l -236 -430 l -168 -414 q -97 -308 -109 -396 l -5 394 q -3 417 -4 406 l -1 417 l 26 626 l -61 626 l -58 648 l 28 648 l 64 922 q 126 1033 73 987 q 247 1079 180 1079 l 353 1079 l 347 1078 l 279 1061 z "},"g":{"ha":572,"x_min":-104,"x_max":451,"o":"m 178 22 q 245 108 230 22 q 245 115 245 113 l 246 115 q 248 123 248 122 l 300 524 q 256 626 313 626 l 219 626 q 149 524 162 626 l 96 123 q 140 22 83 22 l 178 22 m 336 -274 q 274 -385 328 -339 q 153 -431 220 -431 l 47 -431 q -62 -385 -20 -431 q -96 -274 -104 -339 l -87 -216 l 52 -216 l 41 -308 q 84 -410 27 -410 l 121 -410 q 191 -308 178 -410 l 231 0 l 103 0 q -6 46 36 0 q -39 157 -47 92 l 4 490 q 66 602 12 555 q 187 648 120 648 l 316 648 q 391 642 351 648 q 451 610 430 635 l 336 -274 z "},"h":{"ha":570,"x_min":-148,"x_max":470,"o":"m 470 22 l 467 0 l 235 0 l 238 22 l 238 22 l 303 526 q 260 628 317 628 l 222 628 q 153 526 165 628 l 87 22 l 178 22 l 176 0 l -148 0 l -145 22 l -54 22 l 81 1057 l -11 1057 l -7 1079 l 224 1079 l 165 629 q 180 640 173 635 q 208 649 193 648 l 297 649 q 406 603 364 649 q 439 492 448 557 l 378 22 l 470 22 z "},"i":{"ha":290,"x_min":-144,"x_max":201,"o":"m 96 758 q 60 773 74 758 q 50 810 47 789 l 56 855 q 76 892 58 877 q 115 908 94 908 l 152 908 q 188 892 174 908 q 199 855 201 877 l 193 810 q 172 773 190 789 q 133 758 155 758 l 96 758 m 182 22 l 179 0 l -144 0 l -142 22 l -50 22 l 28 626 l -63 626 l -60 648 l 172 648 l 90 22 l 182 22 z "},"j":{"ha":284,"x_min":-244,"x_max":195,"o":"m 45 -274 q -17 -385 37 -339 q -138 -431 -71 -431 l -244 -431 l -239 -430 l -170 -414 q -100 -308 -111 -396 l -8 394 q -6 417 -7 406 l -5 417 l 22 626 l -70 626 l -67 648 l 165 648 l 45 -274 m 90 758 q 54 773 67 758 q 43 810 40 789 l 49 855 q 69 892 52 877 q 109 908 87 908 l 146 908 q 181 892 168 908 q 192 855 195 877 l 186 810 q 165 773 183 789 q 126 758 148 758 l 90 758 z "},"k":{"ha":537,"x_min":-149,"x_max":519,"o":"m 229 423 q 235 433 233 428 l 220 416 q 227 423 224 420 l 229 423 m 425 22 l 481 22 l 479 0 l 435 0 l 435 0 l 273 0 l 129 315 l 123 309 l 86 22 l 178 22 l 175 0 l -149 0 l -146 22 l -54 22 l 81 1057 l -12 1057 l -8 1079 l 223 1079 l 128 345 l 382 626 l 301 626 l 304 648 l 519 648 l 517 626 l 409 626 l 237 435 l 425 22 z "},"l":{"ha":283,"x_min":-151,"x_max":220,"o":"m 175 22 l 172 0 l -151 0 l -149 22 l -57 22 l 78 1057 l -14 1057 l -11 1079 l 220 1079 l 140 454 l 140 454 l 83 22 l 175 22 z "},"m":{"ha":867,"x_min":-151,"x_max":758,"o":"m 758 22 l 755 0 l 523 0 l 526 22 l 526 22 l 591 526 q 547 628 604 628 l 511 628 q 505 627 507 628 q 504 627 505 627 q 499 627 501 627 q 498 627 500 627 q 494 625 495 626 l 492 625 q 488 623 490 624 q 487 623 488 623 q 483 621 485 622 q 481 620 482 621 q 478 617 479 618 q 476 616 477 617 q 473 613 475 614 q 471 612 472 612 q 469 608 470 610 q 467 606 467 607 q 464 602 466 604 l 463 600 q 460 595 461 598 q 458 593 458 593 q 455 586 457 590 l 455 585 q 440 526 445 562 l 375 22 l 467 22 l 464 0 l 232 0 l 235 22 l 300 527 q 256 628 313 628 l 219 628 q 149 526 162 628 l 83 22 l 175 22 l 172 0 l -151 0 l -149 22 l -57 22 l 12 553 q 14 598 17 576 q 9 626 14 610 l -70 626 l -67 648 l 127 648 l 127 646 l 144 646 q 153 621 149 635 l 153 621 q 161 627 155 621 q 176 640 169 635 q 205 649 189 648 l 294 649 q 382 621 345 649 q 479 649 428 649 l 585 649 q 694 603 652 649 q 727 492 736 557 l 666 22 l 758 22 z "},"n":{"ha":572,"x_min":-151,"x_max":467,"o":"m 467 22 l 465 0 l 233 0 l 300 526 q 257 628 314 628 l 220 628 q 150 526 163 628 l 84 22 l 176 22 l 173 0 l -151 0 l -148 22 l -56 22 l 13 553 q 16 598 18 576 q 10 626 14 610 l -69 626 l -66 648 l 127 648 l 127 646 l 145 646 q 153 621 150 635 l 154 621 q 162 627 156 621 q 177 640 170 635 q 205 649 190 648 l 294 649 q 404 603 361 649 q 437 492 445 557 l 376 22 l 467 22 z "},"o":{"ha":545,"x_min":-45,"x_max":446,"o":"m 302 524 q 258 626 315 626 l 221 626 q 151 524 164 626 l 99 123 q 142 22 85 22 l 180 22 q 250 123 237 22 l 302 524 m 296 648 q 405 602 363 648 q 437 490 446 555 l 395 157 q 332 46 386 92 q 212 0 279 0 l 105 0 q -4 46 38 0 q -37 157 -45 92 l 6 490 q 68 602 15 555 q 189 648 122 648 l 296 648 z "},"p":{"ha":572,"x_min":-202,"x_max":450,"o":"m 305 526 q 262 628 319 628 l 224 628 q 154 526 168 628 l 102 125 q 146 24 89 24 l 183 24 q 253 125 240 24 l 305 526 m 299 649 q 408 603 366 649 q 441 492 450 557 l 398 159 q 336 48 389 94 q 215 2 282 2 l 109 2 q 86 4 99 2 l 33 -410 l 124 -410 l 121 -431 l -202 -431 l -199 -410 l -108 -410 l 18 553 q 20 598 22 576 q 14 626 18 610 l -64 626 l -62 648 l 132 648 l 132 646 l 149 646 q 158 621 155 635 l 159 621 q 166 627 160 621 q 182 640 174 635 q 210 649 194 648 l 299 649 z "},"q":{"ha":574,"x_min":-43,"x_max":553,"o":"m 304 524 q 261 626 318 626 l 224 626 q 153 524 167 626 l 102 123 q 145 22 88 22 l 182 22 q 252 123 239 22 l 304 524 m 471 626 q 458 599 463 610 q 449 554 450 577 l 323 -410 l 415 -410 l 412 -431 l 89 -431 l 92 -410 l 183 -410 l 237 2 q 214 0 224 0 l 108 0 q -1 46 41 0 q -35 157 -43 92 l 9 490 q 71 602 18 555 q 192 648 125 648 l 292 648 q 307 640 301 645 q 319 627 313 635 q 325 621 323 621 l 326 621 q 341 647 333 635 l 365 647 l 365 648 l 553 648 l 550 626 l 471 626 z "},"r":{"ha":441,"x_min":-148,"x_max":412,"o":"m 276 648 q 351 642 311 648 q 412 610 390 635 l 389 431 l 248 431 l 260 524 q 199 597 273 623 q 159 576 176 591 l 143 457 l 143 456 l 87 22 l 178 22 l 176 0 l -148 0 l -145 22 l -54 22 l 25 626 l -66 626 l -64 648 l 168 648 l 164 617 q 254 648 220 648 l 276 648 l 276 648 z "},"s":{"ha":532,"x_min":-68,"x_max":424,"o":"m 119 602 q 77 535 82 576 q 120 444 69 479 q 234 395 144 427 q 347 336 314 366 q 386 217 395 291 q 317 64 374 123 q 155 0 255 0 l 153 0 q 150 0 151 0 l 67 0 q -8 6 31 -1 q -68 37 -47 12 l -48 195 l 92 195 l 83 123 q 127 22 70 22 l 151 22 l 151 22 q 286 138 271 25 q 241 203 291 176 q 130 250 243 203 q -16 454 -33 317 q 51 593 -5 540 q 195 648 109 648 l 289 648 q 363 642 324 648 q 424 610 403 635 l 404 453 l 263 453 l 273 524 q 229 626 286 626 q 197 626 197 626 q 119 602 153 626 z "},"t":{"ha":338,"x_min":-21,"x_max":306,"o":"m 236 0 l 130 0 q 20 46 62 0 q -13 157 -21 92 l 48 626 l -20 626 l -18 648 l 51 648 l 81 880 l 224 902 l 191 648 l 306 648 l 303 626 l 189 626 l 123 123 q 166 18 112 35 l 231 1 l 236 0 z "},"u":{"ha":572,"x_min":-68,"x_max":468,"o":"m -68 628 l -66 649 l 166 649 l 163 628 l 163 628 l 98 123 q 142 22 85 22 l 178 22 q 249 123 235 22 l 315 628 l 222 628 l 226 649 l 457 649 l 386 96 q 383 51 381 73 q 389 24 385 39 l 468 24 l 465 2 l 271 2 l 271 3 l 254 3 q 245 28 248 15 q 244 28 244 28 q 237 22 243 28 q 222 9 229 14 q 193 0 209 1 l 104 0 q -5 46 37 0 q -38 157 -46 92 l 23 628 l -68 628 z "},"v":{"ha":544,"x_min":-71,"x_max":552,"o":"m 549 626 l 444 626 l 165 0 l 143 0 l 143 1 l 25 626 l -71 626 l -68 648 l 256 648 l 253 626 l 172 626 l 246 233 l 421 626 l 334 626 l 336 648 l 552 648 l 549 626 z "},"w":{"ha":842,"x_min":-54,"x_max":881,"o":"m 881 644 l 875 642 l 807 627 q 736 520 747 609 l 707 293 q 705 270 705 281 l 703 270 l 688 154 q 626 43 680 89 q 505 -3 572 -3 l 399 -3 q 310 25 349 -3 q 214 -3 264 -3 l 108 -3 q -1 43 41 -3 q -35 154 -43 89 l 26 623 l -54 623 l -52 644 l 258 644 l 255 623 l 167 623 l 102 121 q 145 18 88 18 l 182 18 q 252 121 239 18 l 321 644 l 461 644 l 393 121 q 437 18 380 18 l 473 18 q 544 121 530 18 l 589 471 l 589 471 l 591 487 q 654 598 600 552 q 774 644 707 644 l 881 644 z "},"x":{"ha":538,"x_min":-132,"x_max":449,"o":"m 449 648 l 446 626 l 344 626 l 216 404 l 321 22 l 368 22 l 365 0 l 176 0 l 114 226 l -3 22 l 74 22 l 71 0 l -132 0 l -129 22 l -27 22 l 106 254 l 4 626 l -50 626 l -47 648 l 150 648 l 209 432 l 320 626 l 245 626 l 248 648 l 449 648 z "},"y":{"ha":574,"x_min":-104,"x_max":455,"o":"m 336 -274 q 273 -385 327 -339 q 153 -431 220 -431 l 46 -431 q -63 -385 -21 -431 q -96 -274 -104 -339 l -88 -216 l 52 -216 l 40 -308 q 83 -410 26 -410 l 121 -410 q 191 -308 178 -410 l 231 0 l 102 0 q -7 46 35 0 q -40 157 -48 92 l -12 372 l -12 372 l 21 628 l -71 628 l -68 649 l 164 649 l 161 628 l 161 628 l 96 123 q 140 22 83 22 l 177 22 q 244 108 229 22 q 245 115 245 113 l 245 115 q 247 123 247 122 l 313 628 l 221 628 l 224 649 l 455 649 l 336 -274 z "},"z":{"ha":562,"x_min":-60,"x_max":468,"o":"m 266 193 l 406 193 l 381 0 l -60 0 l 302 626 l 214 626 l 214 625 q 158 547 168 625 l 146 455 l 5 455 l 31 648 l 468 648 l 106 22 l 198 22 l 199 22 q 254 100 244 23 l 266 193 z "},"~":{"ha":493,"x_min":15,"x_max":515,"o":"m 515 899 l 439 815 q 324 753 391 762 q 211 783 258 743 l 215 779 l 215 779 l 208 785 q 73 806 126 855 l 20 774 l 15 770 l 91 854 q 191 906 127 895 q 292 899 248 916 q 335 873 314 890 q 452 853 398 819 l 510 896 l 515 899 z "},"¡":{"ha":273,"x_min":-48,"x_max":194,"o":"m 90 712 q 54 728 67 712 q 43 765 40 743 l 48 810 q 68 847 51 831 q 108 863 86 863 l 144 863 q 180 848 167 863 q 191 810 194 832 l 186 766 q 165 728 183 744 q 126 713 148 713 l 90 712 m 1 0 q -35 16 -21 0 q -45 53 -48 31 l -40 98 q 8 361 -32 163 q 76 604 58 604 l 113 604 q 120 362 132 604 q 103 98 111 163 l 98 54 q 77 16 95 32 q 38 0 60 1 l 1 0 z "},"¨":{"ha":470,"x_min":102,"x_max":450,"o":"m 441 810 q 421 773 439 789 q 382 758 404 758 l 345 758 q 309 773 323 758 q 299 810 296 789 l 304 855 q 325 892 307 877 q 365 908 342 908 l 401 908 q 437 892 423 908 q 448 855 450 877 l 441 810 m 248 810 q 227 773 245 789 q 187 758 210 758 l 151 758 q 115 773 129 758 q 104 810 102 789 l 111 855 q 131 892 113 877 q 170 908 149 908 l 207 908 q 243 892 229 908 q 253 855 256 877 l 248 810 z "},"©":{"ha":2733,"x_min":-45,"x_max":2690,"o":"m 1568 -24 q 1941 -187 1710 -187 q 2356 -24 2172 -187 q 2571 370 2541 139 q 2458 764 2601 601 q 2086 928 2317 928 q 1670 764 1855 928 q 1456 370 1486 601 q 1568 -24 1426 139 m 1619 823 q 2097 1011 1832 1011 q 2526 823 2363 1011 q 2655 370 2690 635 q 2408 -83 2620 104 q 1930 -271 2196 -271 q 1501 -83 1665 -271 q 1373 370 1338 104 q 1619 823 1407 635 m 185 -24 q 558 -187 328 -187 q 974 -24 789 -187 q 1188 370 1158 139 q 1076 764 1218 601 q 703 928 935 928 q 288 764 473 928 q 74 370 104 601 q 185 -24 44 139 m 237 823 q 714 1011 449 1011 q 1143 823 980 1011 q 1272 370 1307 635 q 1025 -83 1238 104 q 547 -271 813 -271 q 119 -83 282 -271 q -10 370 -45 104 q 237 823 24 635 m 2354 160 q 2353 141 2355 151 l 2351 119 q 2345 98 2349 109 q 2342 91 2344 94 q 2299 37 2329 58 q 2233 15 2268 15 l 2112 15 q 2045 43 2071 15 q 2021 112 2019 71 q 2035 136 2023 126 q 2060 146 2046 146 l 2102 146 q 2132 119 2129 146 q 2163 92 2135 92 l 2203 92 q 2239 115 2228 92 l 2245 167 l 2130 167 q 2060 197 2087 167 q 2040 271 2035 228 l 2072 517 q 2085 542 2074 532 q 2111 552 2096 552 l 2151 552 q 2174 542 2165 552 q 2181 517 2183 532 l 2150 278 l 2150 276 l 2150 276 q 2157 253 2148 262 q 2180 243 2167 243 l 2256 243 l 2290 515 q 2303 540 2292 530 q 2330 550 2315 550 l 2370 550 q 2393 540 2384 550 q 2400 515 2402 530 l 2354 160 m 1910 440 q 1903 465 1912 455 q 1880 475 1894 475 l 1840 475 q 1803 448 1811 475 l 1803 448 q 1801 445 1802 446 l 1775 245 l 1850 245 q 1876 255 1864 245 q 1889 280 1887 265 l 1910 440 m 1930 552 q 1997 524 1971 552 q 2021 456 2023 496 q 2022 452 2022 453 l 1998 273 q 1958 199 1992 229 q 1880 168 1923 168 l 1690 168 q 1667 178 1676 168 q 1660 203 1658 189 l 1721 671 q 1734 695 1723 685 q 1760 705 1746 705 l 1800 705 q 1824 695 1815 705 q 1831 671 1832 685 l 1815 552 l 1930 552 m 731 279 q 739 255 730 265 q 762 245 747 245 l 802 245 q 839 273 829 245 l 839 273 q 876 300 848 300 l 918 300 q 941 290 932 300 q 948 265 950 279 l 948 265 q 907 197 940 224 q 831 168 873 168 l 711 168 q 642 199 668 168 q 621 273 615 229 l 644 452 q 645 456 644 454 q 686 524 653 496 q 762 552 720 552 l 882 552 q 949 524 923 552 q 972 455 975 496 l 972 455 q 960 431 970 441 q 934 420 948 420 l 892 420 q 862 448 865 420 l 862 448 q 831 475 859 475 l 791 475 q 766 465 777 475 q 751 441 754 455 l 731 279 m 545 300 q 568 290 559 300 q 576 265 578 279 l 576 265 q 534 197 568 224 q 459 168 500 168 l 338 168 q 269 199 296 168 q 248 273 243 229 l 272 452 q 272 456 272 454 q 314 524 281 496 q 389 552 348 552 l 509 552 q 576 524 551 552 q 600 455 603 496 l 600 455 q 587 431 598 441 q 562 420 576 420 l 520 420 q 490 448 492 420 q 459 475 487 475 l 419 475 q 393 465 404 475 q 379 441 382 455 l 359 279 q 366 255 357 265 q 389 245 374 245 l 429 245 q 467 273 457 245 q 504 300 476 300 l 545 300 z "},"´":{"ha":510,"x_min":134,"x_max":443,"o":"m 436 877 q 433 836 443 857 q 401 806 422 815 l 367 790 q 254 755 332 774 q 155 749 161 732 l 140 789 q 216 863 134 806 q 319 926 284 909 l 354 941 q 395 944 375 951 q 422 917 414 937 l 436 877 z "},"·":{"ha":349,"x_min":-28,"x_max":127,"o":"m 118 54 q 98 16 115 31 q 58 0 80 0 l 21 0 q -14 16 -1 0 q -25 54 -28 31 l -19 98 q 1 136 -16 120 q 41 151 19 151 l 77 151 q 113 136 100 151 q 123 98 127 120 l 118 54 z "},"¿":{"ha":554,"x_min":-49,"x_max":412,"o":"m 102 1 q -7 47 34 1 q -40 159 -49 93 l -22 297 q 25 393 -14 351 q 117 448 64 434 l 117 448 q 175 555 163 461 l 182 604 l 321 604 l 319 589 q 268 488 312 531 q 165 435 224 444 q 125 341 134 414 l 96 124 q 139 22 82 22 l 176 22 q 246 123 233 22 l 273 323 l 411 323 q 410 295 412 309 l 391 157 q 328 45 382 92 q 208 0 275 -1 l 102 1 m 247 712 q 212 728 224 713 q 201 766 198 744 l 207 810 q 227 848 210 832 q 267 863 245 863 l 304 863 q 339 847 326 863 q 349 810 353 831 l 344 765 q 323 728 340 743 q 283 712 305 712 l 247 712 z "},"À":{"ha":570,"x_min":-207,"x_max":476,"o":"m 281 349 l 332 739 q 288 842 345 842 l 251 842 q 180 739 194 842 l 130 349 l 281 349 m 459 22 l 456 0 l 147 0 l 151 22 l 238 22 l 278 327 l 127 327 l 84 0 l 84 0 l 82 -15 q 20 -126 74 -81 q -101 -172 -33 -172 l -207 -172 l -201 -171 l -133 -155 q -62 -49 -74 -137 l -14 327 l -90 327 l -87 349 l -11 349 l -5 394 q -3 417 -3 406 l -1 417 l 36 706 q 98 817 44 771 q 219 863 152 863 l 325 863 q 434 817 393 863 q 467 706 476 771 l 378 22 l 459 22 m 176 1085 q 210 1112 189 1105 q 250 1109 232 1119 l 281 1094 q 368 1031 312 1078 q 425 958 435 975 l 400 917 q 302 923 389 900 q 198 958 229 942 l 168 974 q 144 1004 149 983 q 152 1045 140 1025 l 176 1085 z "},"Á":{"ha":570,"x_min":-207,"x_max":476,"o":"m 130 349 l 180 739 q 251 842 194 842 l 288 842 q 332 739 345 842 l 281 349 l 130 349 m 378 22 l 467 706 q 434 817 476 771 q 325 863 393 863 l 219 863 q 98 817 152 863 q 36 706 44 771 l -1 417 l -3 417 q -5 394 -3 406 l -11 349 l -87 349 l -90 327 l -14 327 l -62 -49 q -133 -155 -74 -137 l -201 -171 l -207 -172 l -101 -172 q 20 -126 -33 -172 q 82 -15 74 -81 l 84 0 l 84 0 l 127 327 l 278 327 l 238 22 l 151 22 l 147 0 l 456 0 l 459 22 l 378 22 m 437 1040 q 435 999 444 1019 q 404 968 425 978 l 368 953 q 255 918 334 937 q 156 911 162 895 l 142 951 q 217 1025 136 969 q 321 1088 286 1072 l 355 1104 q 397 1107 376 1114 q 423 1080 416 1099 l 437 1040 z "},"Â":{"ha":570,"x_min":-207,"x_max":476,"o":"m 281 349 l 332 739 q 288 842 345 842 l 251 842 q 180 739 194 842 l 130 349 l 281 349 m 459 22 l 456 0 l 147 0 l 151 22 l 238 22 l 278 327 l 127 327 l 84 0 l 84 0 l 82 -15 q 20 -126 74 -81 q -101 -172 -33 -172 l -207 -172 l -201 -171 l -133 -155 q -62 -49 -74 -137 l -14 327 l -90 327 l -87 349 l -11 349 l -5 394 q -3 417 -3 406 l -1 417 l 36 706 q 98 817 44 771 q 219 863 152 863 l 325 863 q 434 817 393 863 q 467 706 476 771 l 378 22 l 459 22 m 459 1010 q 473 976 474 997 q 457 939 473 956 l 456 939 q 418 920 440 922 q 381 932 396 918 l 284 1016 l 178 941 q 137 924 157 926 q 108 934 117 922 l 107 935 q 107 965 99 946 q 136 998 115 983 l 270 1093 q 302 1108 286 1104 q 329 1108 317 1112 q 360 1097 347 1107 l 459 1010 z "},"Ã":{"ha":570,"x_min":-207,"x_max":562,"o":"m 281 349 l 332 739 q 288 842 345 842 l 251 842 q 180 739 194 842 l 130 349 l 281 349 m 459 22 l 456 0 l 147 0 l 151 22 l 238 22 l 278 327 l 127 327 l 84 0 l 84 0 l 82 -15 q 20 -126 74 -81 q -101 -172 -33 -172 l -207 -172 l -201 -171 l -133 -155 q -62 -49 -74 -137 l -14 327 l -90 327 l -87 349 l -11 349 l -5 394 q -3 417 -3 406 l -1 417 l 36 706 q 98 817 44 771 q 219 863 152 863 l 325 863 q 434 817 393 863 q 467 706 476 771 l 378 22 l 459 22 m 562 1096 l 486 1012 q 372 949 438 959 q 258 979 304 939 l 262 976 l 262 976 l 255 982 q 121 1002 174 1052 l 67 970 l 62 967 l 138 1051 q 238 1103 174 1091 q 340 1095 296 1112 q 382 1069 361 1087 q 498 1050 446 1016 l 557 1093 l 562 1096 z "},"Ä":{"ha":570,"x_min":-207,"x_max":476,"o":"m 130 349 l 180 739 q 251 842 194 842 l 288 842 q 332 739 345 842 l 281 349 l 130 349 m 378 22 l 467 706 q 434 817 476 771 q 325 863 393 863 l 219 863 q 98 817 152 863 q 36 706 44 771 l -1 417 l -3 417 q -5 394 -3 406 l -11 349 l -87 349 l -90 327 l -14 327 l -62 -49 q -133 -155 -74 -137 l -201 -171 l -207 -172 l -101 -172 q 20 -126 -33 -172 q 82 -15 74 -81 l 84 0 l 84 0 l 127 327 l 278 327 l 238 22 l 151 22 l 147 0 l 456 0 l 459 22 l 378 22 m 454 1007 q 433 970 451 985 q 394 954 416 954 l 357 954 q 322 970 336 954 q 311 1007 309 985 l 317 1052 q 338 1089 320 1074 q 377 1105 355 1105 l 414 1105 q 449 1089 435 1105 q 460 1052 463 1074 l 454 1007 m 260 1007 q 239 970 257 985 q 200 954 222 954 l 163 954 q 127 970 141 954 q 117 1007 114 985 l 123 1052 q 143 1089 125 1074 q 183 1105 161 1105 l 220 1105 q 255 1089 241 1105 q 266 1052 269 1074 l 260 1007 z "},"Å":{"ha":570,"x_min":-207,"x_max":476,"o":"m 281 349 l 332 739 q 288 842 345 842 l 251 842 q 180 739 194 842 l 130 349 l 281 349 m 459 22 l 456 0 l 147 0 l 151 22 l 238 22 l 278 327 l 127 327 l 84 0 l 84 0 l 82 -15 q 20 -126 74 -81 q -101 -172 -33 -172 l -207 -172 l -201 -171 l -133 -155 q -62 -49 -74 -137 l -14 327 l -90 327 l -87 349 l -11 349 l -5 394 q -3 417 -3 406 l -1 417 l 36 706 q 98 817 44 771 q 219 863 152 863 l 325 863 q 434 817 393 863 q 467 706 476 771 l 378 22 l 459 22 m 366 1026 q 355 1063 369 1048 q 320 1079 342 1079 l 283 1079 q 244 1063 261 1079 q 223 1026 227 1048 l 218 981 q 229 944 215 960 q 264 928 242 928 l 300 928 q 340 944 322 928 q 361 981 357 960 l 366 1026 m 328 1101 q 374 1081 357 1101 q 389 1032 393 1061 l 381 975 q 355 927 378 947 q 303 907 332 907 l 256 907 q 209 927 227 907 q 195 975 191 947 l 203 1032 q 229 1081 206 1061 q 281 1101 252 1101 l 328 1101 z "},"È":{"ha":570,"x_min":-144,"x_max":488,"o":"m 323 671 l 335 763 q 300 841 345 840 l 300 842 l 198 842 l 189 770 q 184 739 186 755 l 133 349 l 283 349 l 279 327 l 130 327 l 104 123 q 147 22 90 22 l 193 22 l 193 22 q 249 100 239 23 l 261 193 l 401 193 l 376 0 l -144 0 l -142 22 l -50 22 l 47 770 q 50 814 52 793 q 44 842 48 826 l -35 842 l -33 863 l 488 863 l 463 671 l 323 671 m 176 1085 q 210 1112 188 1105 q 250 1109 231 1119 l 281 1094 q 368 1031 312 1078 q 424 958 435 975 l 399 917 q 302 923 389 900 q 198 958 229 942 l 167 974 q 144 1004 149 983 q 151 1045 139 1025 l 176 1085 z "},"É":{"ha":570,"x_min":-144,"x_max":488,"o":"m 463 671 l 488 863 l -33 863 l -35 842 l 44 842 q 50 814 48 826 q 47 770 52 793 l -50 22 l -142 22 l -144 0 l 376 0 l 401 193 l 261 193 l 249 100 q 193 22 239 23 l 193 22 l 147 22 q 104 123 90 22 l 130 327 l 279 327 l 283 349 l 133 349 l 184 739 q 189 770 186 755 l 198 842 l 300 842 l 300 841 q 335 763 345 840 l 323 671 l 463 671 m 437 1040 q 434 999 444 1019 q 403 968 424 978 l 368 953 q 255 918 333 937 q 156 911 162 895 l 142 951 q 217 1025 136 969 q 320 1088 286 1072 l 355 1104 q 396 1107 376 1114 q 423 1080 416 1099 l 437 1040 z "},"Ê":{"ha":570,"x_min":-144,"x_max":488,"o":"m 323 671 l 335 763 q 300 841 345 840 l 300 842 l 198 842 l 189 770 q 184 739 186 755 l 133 349 l 283 349 l 279 327 l 130 327 l 104 123 q 147 22 90 22 l 193 22 l 193 22 q 249 100 239 23 l 261 193 l 401 193 l 376 0 l -144 0 l -142 22 l -50 22 l 47 770 q 50 814 52 793 q 44 842 48 826 l -35 842 l -33 863 l 488 863 l 463 671 l 323 671 m 445 1010 q 460 976 460 997 q 444 939 459 956 l 442 939 q 404 920 427 922 q 368 932 382 918 l 271 1016 l 164 941 q 123 924 144 926 q 94 934 102 922 l 94 935 q 93 965 85 946 q 122 998 102 983 l 256 1093 q 288 1108 271 1104 q 315 1108 304 1112 q 346 1097 334 1107 l 445 1010 z "},"Ë":{"ha":570,"x_min":-144,"x_max":488,"o":"m 463 671 l 488 863 l -33 863 l -35 842 l 44 842 q 50 814 48 826 q 47 770 52 793 l -50 22 l -142 22 l -144 0 l 376 0 l 401 193 l 261 193 l 249 100 q 193 22 239 23 l 193 22 l 147 22 q 104 123 90 22 l 130 327 l 279 327 l 283 349 l 133 349 l 184 739 q 189 770 186 755 l 198 842 l 300 842 l 300 841 q 335 763 345 840 l 323 671 l 463 671 m 447 1007 q 427 970 444 985 q 387 954 409 954 l 351 954 q 315 970 328 954 q 304 1007 301 985 l 310 1052 q 330 1089 313 1074 q 370 1105 348 1105 l 406 1105 q 442 1089 429 1105 q 453 1052 456 1074 l 447 1007 m 253 1007 q 233 970 250 985 q 193 954 215 954 l 156 954 q 121 970 134 954 q 110 1007 107 985 l 116 1052 q 136 1089 119 1074 q 176 1105 154 1105 l 212 1105 q 248 1089 235 1105 q 258 1052 261 1074 l 253 1007 z "},"Ì":{"ha":289,"x_min":-148,"x_max":286,"o":"m 178 22 l 176 0 l -148 0 l -145 22 l -54 22 l 5 475 l 5 475 l 44 770 q 46 814 48 793 q 41 842 45 826 l -39 842 l -36 863 l 208 863 l 208 863 q 219 863 216 863 l 275 863 l 273 842 l 195 842 l 186 770 q 180 739 182 755 l 87 22 l 178 22 m 26 1085 q 60 1112 39 1105 q 101 1109 82 1119 l 132 1094 q 218 1031 162 1078 q 275 958 286 975 l 250 917 q 153 923 239 900 q 49 958 79 942 l 18 974 q -5 1004 -1 983 q 2 1045 -10 1025 l 26 1085 z "},"Í":{"ha":289,"x_min":-148,"x_max":315,"o":"m 87 22 l 180 739 q 186 770 182 755 l 195 842 l 273 842 l 275 863 l 219 863 q 208 863 216 863 l 208 863 l -36 863 l -39 842 l 41 842 q 46 814 45 826 q 44 770 48 793 l 5 475 l 5 475 l -54 22 l -145 22 l -148 0 l 176 0 l 178 22 l 87 22 m 308 1040 q 305 999 315 1019 q 274 968 295 978 l 239 953 q 125 918 204 937 q 26 911 33 895 l 13 951 q 88 1025 7 969 q 191 1088 156 1072 l 226 1104 q 267 1107 248 1114 q 294 1080 287 1099 l 308 1040 z "},"Î":{"ha":289,"x_min":-148,"x_max":338,"o":"m 178 22 l 176 0 l -148 0 l -145 22 l -54 22 l 5 475 l 5 475 l 44 770 q 46 814 48 793 q 41 842 45 826 l -39 842 l -36 863 l 208 863 l 208 863 q 219 863 216 863 l 275 863 l 273 842 l 195 842 l 186 770 q 180 739 182 755 l 87 22 l 178 22 m 323 1010 q 338 976 338 997 q 321 939 337 956 l 320 939 q 282 920 304 922 q 245 932 260 918 l 149 1016 l 42 941 q 1 924 21 926 q -28 934 -20 922 l -29 935 q -29 965 -37 946 q -1 998 -21 983 l 134 1093 q 165 1108 149 1104 q 193 1108 181 1112 q 224 1097 211 1107 l 323 1010 z "},"Ï":{"ha":289,"x_min":-148,"x_max":326,"o":"m 87 22 l 180 739 q 186 770 182 755 l 195 842 l 273 842 l 275 863 l 219 863 q 208 863 216 863 l 208 863 l -36 863 l -39 842 l 41 842 q 46 814 45 826 q 44 770 48 793 l 5 475 l 5 475 l -54 22 l -145 22 l -148 0 l 176 0 l 178 22 l 87 22 m 318 1007 q 298 970 315 985 q 258 954 280 954 l 221 954 q 186 970 199 954 q 175 1007 172 985 l 181 1052 q 201 1089 184 1074 q 241 1105 219 1105 l 277 1105 q 313 1089 300 1105 q 323 1052 326 1074 l 318 1007 m 123 1007 q 103 970 121 985 q 64 954 85 954 l 27 954 q -8 970 5 954 q -19 1007 -22 985 l -14 1052 q 7 1089 -10 1074 q 47 1105 24 1105 l 83 1105 q 119 1089 105 1105 q 130 1052 132 1074 l 123 1007 z "},"Ñ":{"ha":584,"x_min":-144,"x_max":549,"o":"m 474 22 l 471 0 l 239 0 l 242 22 l 242 22 l 275 281 l 275 281 l 336 741 q 292 844 349 844 l 255 844 q 184 741 198 844 l 91 22 l 182 22 l 180 0 l -144 0 l -141 22 l -50 22 l 48 769 q 50 814 52 792 q 45 842 49 825 l -35 842 l -32 863 l 162 863 l 162 862 l 180 862 q 189 837 185 850 l 189 836 q 197 843 191 837 q 212 856 204 851 q 241 865 224 864 l 329 865 q 438 819 397 865 q 471 708 480 773 l 382 22 l 474 22 m 549 1096 l 473 1012 q 357 949 425 959 q 244 979 291 939 l 248 976 l 248 976 l 241 982 q 106 1002 159 1052 l 53 970 l 48 967 l 124 1051 q 224 1103 160 1091 q 326 1095 281 1112 q 368 1069 347 1087 q 485 1050 431 1016 l 543 1093 l 549 1096 z "},"Ò":{"ha":574,"x_min":-43,"x_max":476,"o":"m 332 739 q 288 842 345 842 l 251 842 q 181 739 194 842 l 123 294 l 123 294 l 101 123 q 144 22 87 22 l 182 22 q 252 123 239 22 l 332 739 m 326 863 q 435 817 393 863 q 468 706 476 771 l 397 157 q 334 46 388 92 q 214 0 281 0 l 107 0 q -2 46 40 0 q -35 157 -43 92 l 37 706 q 98 817 45 771 q 220 863 152 863 l 326 863 m 178 1085 q 212 1112 190 1105 q 252 1109 233 1119 l 283 1094 q 370 1031 313 1078 q 426 958 436 975 l 401 917 q 304 923 391 900 q 199 958 231 942 l 169 974 q 146 1004 150 983 q 153 1045 141 1025 l 178 1085 z "},"Ó":{"ha":574,"x_min":-43,"x_max":476,"o":"m 252 123 q 182 22 239 22 l 144 22 q 101 123 87 22 l 123 294 l 123 294 l 181 739 q 251 842 194 842 l 288 842 q 332 739 345 842 l 252 123 m 220 863 q 98 817 152 863 q 37 706 45 771 l -35 157 q -2 46 -43 92 q 107 0 40 0 l 214 0 q 334 46 281 0 q 397 157 388 92 l 468 706 q 435 817 476 771 q 326 863 393 863 l 220 863 m 439 1040 q 436 999 446 1019 q 405 968 426 978 l 370 953 q 256 918 335 937 q 157 911 163 895 l 143 951 q 218 1025 138 969 q 322 1088 287 1072 l 357 1104 q 398 1107 378 1114 q 425 1080 418 1099 l 439 1040 z "},"Ô":{"ha":574,"x_min":-43,"x_max":476,"o":"m 332 739 q 288 842 345 842 l 251 842 q 181 739 194 842 l 123 294 l 123 294 l 101 123 q 144 22 87 22 l 182 22 q 252 123 239 22 l 332 739 m 326 863 q 435 817 393 863 q 468 706 476 771 l 397 157 q 334 46 388 92 q 214 0 281 0 l 107 0 q -2 46 40 0 q -35 157 -43 92 l 37 706 q 98 817 45 771 q 220 863 152 863 l 326 863 m 460 1010 q 475 976 475 997 q 458 939 475 956 l 458 939 q 420 920 441 922 q 382 932 397 918 l 286 1016 l 179 941 q 138 924 159 926 q 109 934 118 922 l 109 935 q 109 965 100 946 q 137 998 117 983 l 271 1093 q 303 1108 287 1104 q 330 1108 319 1112 q 361 1097 349 1107 l 460 1010 z "},"Õ":{"ha":574,"x_min":-43,"x_max":564,"o":"m 333 739 q 289 842 346 842 l 252 842 q 182 739 195 842 l 124 294 l 124 294 l 102 123 q 145 22 88 22 l 182 22 q 252 123 239 22 l 333 739 m 326 863 q 435 817 393 863 q 469 706 477 771 l 397 157 q 335 46 389 92 q 214 0 281 0 l 108 0 q -1 46 41 0 q -35 157 -43 92 l 37 706 q 99 817 45 771 q 220 863 153 863 l 326 863 m 564 1096 l 488 1012 q 374 949 440 959 q 260 979 307 939 l 264 976 l 264 976 l 257 982 q 123 1002 176 1052 l 69 970 l 64 967 l 140 1051 q 240 1103 176 1091 q 342 1095 298 1112 q 385 1069 363 1087 q 500 1050 448 1016 l 559 1093 l 564 1096 z "},"Ö":{"ha":574,"x_min":-43,"x_max":476,"o":"m 252 123 q 182 22 239 22 l 144 22 q 101 123 87 22 l 123 294 l 123 294 l 181 739 q 251 842 194 842 l 288 842 q 332 739 345 842 l 252 123 m 220 863 q 98 817 152 863 q 37 706 45 771 l -35 157 q -2 46 -43 92 q 107 0 40 0 l 214 0 q 334 46 281 0 q 397 157 388 92 l 468 706 q 435 817 476 771 q 326 863 393 863 l 220 863 m 463 1007 q 441 970 459 985 q 402 954 425 954 l 366 954 q 330 970 344 954 q 319 1007 317 985 l 325 1052 q 346 1089 328 1074 q 385 1105 363 1105 l 422 1105 q 457 1089 444 1105 q 468 1052 471 1074 l 463 1007 m 268 1007 q 248 970 265 985 q 208 954 230 954 l 172 954 q 136 970 149 954 q 125 1007 122 985 l 131 1052 q 151 1089 134 1074 q 191 1105 169 1105 l 228 1105 q 263 1089 250 1105 q 274 1052 277 1074 l 268 1007 z "},"Ù":{"ha":695,"x_min":71,"x_max":695,"o":"m 77 844 l 80 865 l 312 865 l 309 844 l 309 844 l 216 123 q 259 22 202 22 l 296 22 q 366 123 353 22 l 460 844 l 368 844 l 371 865 l 695 865 l 692 844 l 600 844 l 503 96 q 501 51 498 73 q 507 24 503 39 l 585 24 l 583 2 l 389 2 l 389 3 l 371 3 q 363 28 366 14 q 362 28 362 28 q 355 22 361 28 q 339 9 347 14 q 311 0 327 1 l 222 0 q 113 46 155 0 q 79 157 71 92 l 169 844 l 77 844 m 288 1085 q 321 1112 300 1105 q 361 1109 343 1119 l 393 1094 q 479 1031 423 1078 q 536 958 546 975 l 511 917 q 414 923 500 900 q 309 958 340 942 l 279 974 q 256 1004 260 983 q 263 1045 251 1025 l 288 1085 z "},"Ú":{"ha":695,"x_min":71,"x_max":695,"o":"m 169 844 l 79 157 q 113 46 71 92 q 222 0 155 0 l 311 0 q 339 9 327 1 q 355 22 347 14 q 362 28 361 28 q 363 28 362 28 q 371 3 366 14 l 389 3 l 389 2 l 583 2 l 585 24 l 507 24 q 501 51 503 39 q 503 96 498 73 l 600 844 l 692 844 l 695 865 l 371 865 l 368 844 l 460 844 l 366 123 q 296 22 353 22 l 259 22 q 216 123 202 22 l 309 844 l 309 844 l 312 865 l 80 865 l 77 844 l 169 844 m 549 1040 q 546 999 555 1019 q 515 968 536 978 l 479 953 q 366 918 445 937 q 267 911 273 895 l 253 951 q 328 1025 248 969 q 432 1088 397 1072 l 467 1104 q 508 1107 488 1114 q 534 1080 528 1099 l 549 1040 z "},"Û":{"ha":695,"x_min":71,"x_max":695,"o":"m 77 844 l 80 865 l 312 865 l 309 844 l 309 844 l 216 123 q 259 22 202 22 l 296 22 q 366 123 353 22 l 460 844 l 368 844 l 371 865 l 695 865 l 692 844 l 600 844 l 503 96 q 501 51 498 73 q 507 24 503 39 l 585 24 l 583 2 l 389 2 l 389 3 l 371 3 q 363 28 366 14 q 362 28 362 28 q 355 22 361 28 q 339 9 347 14 q 311 0 327 1 l 222 0 q 113 46 155 0 q 79 157 71 92 l 169 844 l 77 844 m 570 1010 q 585 976 585 997 q 568 939 585 956 l 568 939 q 530 920 551 922 q 492 932 507 918 l 395 1016 l 289 941 q 248 924 269 926 q 219 934 228 922 l 218 935 q 218 965 210 946 q 247 998 227 983 l 381 1093 q 413 1108 397 1104 q 440 1108 429 1112 q 471 1097 458 1107 l 570 1010 z "},"Ü":{"ha":695,"x_min":71,"x_max":695,"o":"m 169 844 l 79 157 q 113 46 71 92 q 222 0 155 0 l 311 0 q 339 9 327 1 q 355 22 347 14 q 362 28 361 28 q 363 28 362 28 q 371 3 366 14 l 389 3 l 389 2 l 583 2 l 585 24 l 507 24 q 501 51 503 39 q 503 96 498 73 l 600 844 l 692 844 l 695 865 l 371 865 l 368 844 l 460 844 l 366 123 q 296 22 353 22 l 259 22 q 216 123 202 22 l 309 844 l 309 844 l 312 865 l 80 865 l 77 844 l 169 844 m 572 1007 q 551 970 569 985 q 512 954 534 954 l 475 954 q 440 970 454 954 q 429 1007 427 985 l 435 1052 q 456 1089 438 1074 q 495 1105 473 1105 l 532 1105 q 567 1089 553 1105 q 578 1052 581 1074 l 572 1007 m 378 1007 q 357 970 375 985 q 318 954 340 954 l 281 954 q 245 970 259 954 q 235 1007 232 985 l 241 1052 q 261 1089 243 1074 q 301 1105 279 1105 l 338 1105 q 373 1089 359 1105 q 384 1052 387 1074 l 378 1007 z "},"Ý":{"ha":576,"x_min":-96,"x_max":584,"o":"m 73 -124 q 75 -118 73 -121 q 155 -69 82 -96 q 235 -41 237 -39 l 199 -308 q 130 -410 186 -410 l 92 -410 q 52 -383 62 -410 q 49 -308 42 -357 l 73 -124 m 260 865 l 258 844 l 349 844 l 256 123 q 254 115 256 121 l 254 115 q 253 107 254 113 q 186 22 238 22 l 149 22 q 104 123 92 22 l 198 844 l 198 844 l 201 865 l -31 865 l -33 844 l 58 844 l -31 157 q 2 46 -39 92 q 111 0 44 0 l 239 0 q 226 -14 236 -9 q 140 -43 204 -22 q -26 -117 11 -86 q -81 -231 -72 -157 l -87 -274 q -54 -385 -96 -339 q 55 -431 -12 -431 l 161 -431 q 282 -385 229 -431 q 345 -274 336 -339 l 490 844 l 581 844 l 584 865 l 260 865 m 439 1040 q 436 999 446 1019 q 405 968 427 978 l 370 953 q 257 918 335 937 q 158 911 164 895 l 144 951 q 219 1025 138 969 q 322 1088 288 1072 l 357 1104 q 398 1107 378 1114 q 425 1080 418 1099 l 439 1040 z "},"à":{"ha":568,"x_min":-43,"x_max":448,"o":"m 182 22 q 252 123 239 22 l 287 391 q 208 363 290 393 q 127 313 134 335 q 125 307 125 311 l 101 123 q 144 22 87 22 l 182 22 m 256 1 q 248 26 252 12 q 229 9 235 13 q 201 0 216 1 l 107 0 q -2 46 40 0 q -35 157 -43 92 l -29 201 q 26 314 -20 274 q 192 389 63 345 q 278 418 256 410 q 292 433 289 422 l 304 524 q 260 626 317 626 l 223 626 q 153 524 166 626 l 141 431 l 1 431 l 8 490 q 71 602 17 555 q 191 648 124 648 l 298 648 q 407 602 365 648 q 439 490 448 555 l 410 258 l 410 258 l 389 94 q 386 49 384 71 q 397 0 389 27 l 256 1 m 154 916 q 188 943 166 935 q 228 940 210 949 l 259 924 q 346 861 290 909 q 401 788 412 805 l 377 747 q 279 753 367 730 q 176 789 206 772 l 144 804 q 121 835 126 814 q 129 876 117 856 l 154 916 z "},"á":{"ha":568,"x_min":-43,"x_max":448,"o":"m 144 22 q 101 123 87 22 l 125 307 q 127 313 125 311 q 208 363 134 335 q 287 391 290 393 l 252 123 q 182 22 239 22 l 144 22 m 397 0 q 386 49 389 27 q 389 94 384 71 l 410 258 l 410 258 l 439 490 q 407 602 448 555 q 298 648 365 648 l 191 648 q 71 602 124 648 q 8 490 17 555 l 1 431 l 141 431 l 153 524 q 223 626 166 626 l 260 626 q 304 524 317 626 l 292 433 q 278 418 289 422 q 192 389 256 410 q 26 314 63 345 q -29 201 -20 274 l -35 157 q -2 46 -43 92 q 107 0 40 0 l 201 0 q 229 9 216 1 q 248 26 235 13 q 256 1 252 12 l 397 0 m 436 877 q 433 836 443 857 q 402 806 423 815 l 367 790 q 254 755 332 774 q 155 749 161 732 l 140 789 q 216 863 134 806 q 319 926 284 909 l 354 941 q 395 944 375 951 q 422 917 415 937 l 436 877 z "},"â":{"ha":568,"x_min":-43,"x_max":448,"o":"m 181 22 q 252 123 238 22 l 286 391 q 208 363 290 393 q 126 313 135 335 q 125 307 125 311 l 101 123 q 144 22 87 22 l 181 22 m 256 1 q 248 26 252 12 q 229 9 235 13 q 200 0 217 1 l 107 0 q -2 46 39 0 q -35 157 -43 92 l -29 201 q 27 314 -20 274 q 192 389 62 345 q 279 418 256 410 q 292 433 289 422 l 304 524 q 260 626 317 626 l 223 626 q 153 524 166 626 l 141 431 l 1 431 l 8 490 q 71 602 17 555 q 191 648 123 648 l 297 648 q 407 602 364 648 q 439 490 448 555 l 388 94 q 386 49 384 71 q 397 0 389 27 l 256 1 m 432 806 q 446 772 447 793 q 430 736 446 752 l 429 735 q 391 717 413 719 q 354 728 369 715 l 257 812 l 151 737 q 110 720 130 722 q 81 730 90 718 l 80 731 q 80 762 71 743 q 109 794 88 780 l 243 890 q 275 905 258 901 q 302 905 290 909 q 333 893 320 904 l 432 806 z "},"ã":{"ha":568,"x_min":-43,"x_max":536,"o":"m 182 22 q 252 123 239 22 l 287 391 q 208 363 290 393 q 127 313 134 335 q 125 307 125 311 l 101 123 q 144 22 87 22 l 182 22 m 256 1 q 248 26 252 12 q 229 9 235 13 q 201 0 216 1 l 107 0 q -2 46 40 0 q -35 157 -43 92 l -29 201 q 26 314 -20 274 q 192 389 63 345 q 278 418 256 410 q 292 433 289 422 l 304 524 q 260 626 317 626 l 223 626 q 153 524 166 626 l 141 431 l 1 431 l 8 490 q 71 602 17 555 q 191 648 124 648 l 298 648 q 407 602 365 648 q 439 490 448 555 l 410 258 l 410 258 l 389 94 q 386 49 384 71 q 397 0 389 27 l 256 1 m 536 899 l 460 815 q 345 753 412 762 q 232 783 279 743 l 236 779 l 236 779 l 229 785 q 94 806 147 855 l 41 774 l 36 770 l 112 854 q 212 906 148 895 q 313 899 269 916 q 356 873 335 890 q 473 853 419 819 l 531 896 l 536 899 z "},"ä":{"ha":568,"x_min":-43,"x_max":450,"o":"m 144 22 q 101 123 87 22 l 125 307 q 127 313 125 311 q 208 363 134 335 q 287 391 290 393 l 252 123 q 182 22 239 22 l 144 22 m 397 0 q 386 49 389 27 q 389 94 384 71 l 410 258 l 410 258 l 439 490 q 407 602 448 555 q 298 648 365 648 l 191 648 q 71 602 124 648 q 8 490 17 555 l 1 431 l 141 431 l 153 524 q 223 626 166 626 l 260 626 q 304 524 317 626 l 292 433 q 278 418 289 422 q 192 389 256 410 q 26 314 63 345 q -29 201 -20 274 l -35 157 q -2 46 -43 92 q 107 0 40 0 l 201 0 q 229 9 216 1 q 248 26 235 13 q 256 1 252 12 l 397 0 m 441 810 q 421 773 439 789 q 381 758 404 758 l 345 758 q 309 773 323 758 q 298 810 296 789 l 304 855 q 325 892 307 877 q 364 908 342 908 l 401 908 q 437 892 423 908 q 447 855 450 877 l 441 810 m 248 810 q 227 773 244 789 q 187 758 210 758 l 151 758 q 115 773 129 758 q 104 810 102 789 l 110 855 q 131 892 113 877 q 170 908 149 908 l 207 908 q 242 892 229 908 q 253 855 256 877 l 248 810 z "},"å":{"ha":568,"x_min":-43,"x_max":448,"o":"m 182 22 q 252 123 239 22 l 287 391 q 208 363 290 393 q 127 313 134 335 q 125 307 125 311 l 101 123 q 144 22 87 22 l 182 22 m 256 1 q 248 26 252 12 q 229 9 235 13 q 201 0 216 1 l 107 0 q -2 46 40 0 q -35 157 -43 92 l -29 201 q 26 314 -20 274 q 192 389 63 345 q 278 418 256 410 q 292 433 289 422 l 304 524 q 260 626 317 626 l 223 626 q 153 524 166 626 l 141 431 l 1 431 l 8 490 q 71 602 17 555 q 191 648 124 648 l 298 648 q 407 602 365 648 q 439 490 448 555 l 410 258 l 410 258 l 389 94 q 386 49 384 71 q 397 0 389 27 l 256 1 m 357 857 q 347 894 360 878 q 311 909 333 909 l 274 909 q 235 894 252 909 q 214 857 217 878 l 208 812 q 219 774 205 790 q 255 759 233 759 l 292 759 q 331 774 313 759 q 351 812 349 790 l 357 857 m 319 931 q 366 911 348 931 q 380 863 383 891 l 372 806 q 345 758 368 777 q 294 737 323 737 l 246 737 q 200 758 218 737 q 186 806 182 777 l 193 863 q 220 911 197 891 q 271 931 243 931 l 319 931 z "},"ç":{"ha":570,"x_min":-46,"x_max":452,"o":"m 109 -56 q 165 0 163 -31 l 104 0 q -5 46 37 0 q -38 157 -46 92 l 5 490 q 68 602 14 555 q 189 648 121 648 l 317 648 q 392 642 353 648 q 452 610 431 635 l 429 431 l 289 431 l 301 524 q 257 626 314 626 l 220 626 q 151 524 163 626 l 98 123 q 142 22 85 22 l 178 22 q 249 123 235 22 l 261 216 l 401 216 l 378 37 q 309 6 351 12 q 233 0 269 -1 l 197 0 q 222 -87 231 -41 q 160 -156 212 -133 l 165 -154 l 165 -155 l 157 -158 q 100 -243 67 -199 l 115 -286 l 117 -290 l 58 -222 q 37 -145 29 -190 q 73 -79 44 -105 q 109 -56 87 -66 z "},"è":{"ha":572,"x_min":-47,"x_max":445,"o":"m 220 626 q 149 524 163 626 l 127 349 l 278 349 l 300 524 q 257 626 314 626 l 220 626 m 124 327 l 98 123 q 141 22 84 22 l 178 22 q 248 123 235 22 l 260 216 l 401 216 l 393 157 q 331 46 385 92 q 210 0 277 0 l 104 0 q -5 46 37 0 q -39 157 -47 92 l 5 490 q 67 602 14 555 q 188 648 121 648 l 294 648 q 404 602 361 648 q 436 490 445 555 l 415 327 l 124 327 m 120 916 q 154 943 132 935 q 194 940 176 949 l 225 924 q 312 861 256 909 q 368 788 378 805 l 343 747 q 245 753 333 730 q 142 789 172 772 l 111 804 q 87 835 92 814 q 96 876 83 856 l 120 916 z "},"é":{"ha":572,"x_min":-47,"x_max":445,"o":"m 257 626 q 300 524 314 626 l 278 349 l 127 349 l 149 524 q 220 626 163 626 l 257 626 m 415 327 l 436 490 q 404 602 445 555 q 294 648 361 648 l 188 648 q 67 602 121 648 q 5 490 14 555 l -39 157 q -5 46 -47 92 q 104 0 37 0 l 210 0 q 331 46 277 0 q 393 157 385 92 l 401 216 l 260 216 l 248 123 q 178 22 235 22 l 141 22 q 98 123 84 22 l 124 327 l 415 327 m 409 877 q 406 836 416 857 q 375 806 396 815 l 340 790 q 227 755 305 774 q 127 749 134 732 l 113 789 q 189 863 107 806 q 292 926 257 909 l 327 941 q 368 944 348 951 q 395 917 388 937 l 409 877 z "},"ê":{"ha":572,"x_min":-47,"x_max":447,"o":"m 220 626 q 149 524 163 626 l 127 349 l 278 349 l 300 524 q 257 626 314 626 l 220 626 m 124 327 l 98 123 q 141 22 84 22 l 178 22 q 248 123 235 22 l 260 216 l 401 216 l 393 157 q 331 46 385 92 q 210 0 277 0 l 104 0 q -5 46 37 0 q -39 157 -47 92 l 5 490 q 67 602 14 555 q 188 648 121 648 l 294 648 q 404 602 361 648 q 436 490 445 555 l 415 327 l 124 327 m 432 806 q 447 772 447 793 q 430 736 446 752 l 429 735 q 391 717 413 719 q 354 728 370 715 l 258 812 l 151 737 q 110 720 130 722 q 81 730 90 718 l 80 731 q 80 762 72 743 q 109 794 88 780 l 243 890 q 275 905 258 901 q 302 905 290 909 q 333 893 320 904 l 432 806 z "},"ë":{"ha":572,"x_min":-47,"x_max":445,"o":"m 257 626 q 300 524 314 626 l 278 349 l 127 349 l 149 524 q 220 626 163 626 l 257 626 m 415 327 l 436 490 q 404 602 445 555 q 294 648 361 648 l 188 648 q 67 602 121 648 q 5 490 14 555 l -39 157 q -5 46 -47 92 q 104 0 37 0 l 210 0 q 331 46 277 0 q 393 157 385 92 l 401 216 l 260 216 l 248 123 q 178 22 235 22 l 141 22 q 98 123 84 22 l 124 327 l 415 327 m 428 810 q 408 773 425 789 q 368 758 390 758 l 331 758 q 296 773 309 758 q 285 810 282 789 l 291 855 q 311 892 294 877 q 351 908 329 908 l 387 908 q 423 892 410 908 q 434 855 437 877 l 428 810 m 234 810 q 214 773 231 789 q 174 758 196 758 l 137 758 q 102 773 115 758 q 91 810 88 789 l 97 855 q 117 892 100 877 q 157 908 135 908 l 193 908 q 229 892 216 908 q 239 855 242 877 l 234 810 z "},"ì":{"ha":290,"x_min":-144,"x_max":263,"o":"m 182 22 l 179 0 l -144 0 l -142 22 l -50 22 l 28 626 l -63 626 l -60 648 l 172 648 l 90 22 l 182 22 m 5 916 q 39 943 17 935 q 79 940 60 949 l 110 924 q 197 861 140 909 q 253 788 263 805 l 228 747 q 130 753 218 730 q 26 789 57 772 l -5 804 q -28 835 -23 814 q -20 876 -32 856 l 5 916 z "},"í":{"ha":290,"x_min":-144,"x_max":300,"o":"m 90 22 l 172 648 l -60 648 l -63 626 l 28 626 l -50 22 l -142 22 l -144 0 l 179 0 l 182 22 l 90 22 m 294 877 q 291 836 300 857 q 260 806 281 815 l 224 790 q 111 755 190 774 q 12 749 18 732 l -2 789 q 73 863 -8 806 q 177 926 142 909 l 212 941 q 253 944 233 951 q 279 917 273 937 l 294 877 z "},"î":{"ha":290,"x_min":-144,"x_max":304,"o":"m 182 22 l 179 0 l -144 0 l -142 22 l -50 22 l 28 626 l -63 626 l -60 648 l 172 648 l 90 22 l 182 22 m 290 806 q 304 772 304 793 q 288 736 304 752 l 287 735 q 249 717 271 719 q 212 728 227 715 l 115 812 l 9 737 q -33 720 -12 722 q -62 730 -53 718 l -62 731 q -62 762 -71 743 q -34 794 -54 780 l 100 890 q 132 905 116 901 q 159 905 148 909 q 191 893 178 904 l 290 806 z "},"ï":{"ha":290,"x_min":-144,"x_max":301,"o":"m 90 22 l 172 648 l -60 648 l -63 626 l 28 626 l -50 22 l -142 22 l -144 0 l 179 0 l 182 22 l 90 22 m 292 810 q 272 773 290 789 q 232 758 254 758 l 195 758 q 160 773 174 758 q 149 810 146 789 l 155 855 q 176 892 158 877 q 215 908 193 908 l 252 908 q 288 892 274 908 q 298 855 301 877 l 292 810 m 98 810 q 78 773 95 789 q 38 758 60 758 l 1 758 q -34 773 -20 758 q -45 810 -47 789 l -39 855 q -18 892 -36 877 q 21 908 -1 908 l 58 908 q 93 892 80 908 q 104 855 106 877 l 98 810 z "},"ñ":{"ha":572,"x_min":-151,"x_max":515,"o":"m 467 22 l 465 0 l 233 0 l 300 526 q 257 628 314 628 l 220 628 q 150 526 163 628 l 84 22 l 176 22 l 173 0 l -151 0 l -148 22 l -56 22 l 13 553 q 16 598 18 576 q 10 626 14 610 l -69 626 l -66 648 l 127 648 l 127 646 l 145 646 q 153 621 150 635 l 154 621 q 162 627 156 621 q 177 640 170 635 q 205 649 190 648 l 294 649 q 404 603 361 649 q 437 492 445 557 l 376 22 l 467 22 m 515 899 l 439 815 q 325 753 392 762 q 212 783 258 743 l 216 779 l 216 779 l 208 785 q 74 806 127 855 l 20 774 l 16 770 l 91 854 q 192 906 127 895 q 293 899 249 916 q 336 873 315 890 q 452 853 399 819 l 511 896 l 515 899 z "},"ò":{"ha":576,"x_min":-45,"x_max":446,"o":"m 302 524 q 258 626 315 626 l 221 626 q 151 524 164 626 l 99 123 q 142 22 85 22 l 180 22 q 250 123 237 22 l 302 524 m 296 648 q 405 602 363 648 q 437 490 446 555 l 395 157 q 332 46 386 92 q 212 0 279 0 l 105 0 q -4 46 38 0 q -37 157 -45 92 l 6 490 q 68 602 15 555 q 189 648 122 648 l 296 648 m 153 916 q 186 943 165 935 q 227 940 208 949 l 258 924 q 345 861 288 909 q 401 788 412 805 l 376 747 q 279 753 366 730 q 175 789 205 772 l 144 804 q 121 835 125 814 q 128 876 116 856 l 153 916 z "},"ó":{"ha":576,"x_min":-45,"x_max":446,"o":"m 250 123 q 180 22 237 22 l 142 22 q 99 123 85 22 l 151 524 q 221 626 164 626 l 258 626 q 302 524 315 626 l 250 123 m 189 648 q 68 602 122 648 q 6 490 15 555 l -37 157 q -4 46 -45 92 q 105 0 38 0 l 212 0 q 332 46 279 0 q 395 157 386 92 l 437 490 q 405 602 446 555 q 296 648 363 648 l 189 648 m 421 877 q 418 836 429 857 q 387 806 408 815 l 353 790 q 239 755 317 774 q 140 749 146 732 l 126 789 q 201 863 120 806 q 304 926 270 909 l 340 941 q 380 944 361 951 q 408 917 400 937 l 421 877 z "},"ô":{"ha":685,"x_min":-45,"x_max":447,"o":"m 432 806 q 446 772 447 793 q 430 736 446 752 l 429 735 q 391 717 413 719 q 354 728 369 715 l 257 812 l 151 737 q 110 720 130 722 q 81 730 89 718 l 80 731 q 79 762 71 743 q 109 794 88 780 l 243 890 q 275 905 258 901 q 302 905 290 909 q 332 893 320 904 l 432 806 m 302 524 q 259 626 316 626 l 222 626 q 151 524 165 626 l 100 123 q 143 22 86 22 l 180 22 q 250 123 237 22 l 302 524 m 296 648 q 406 602 363 648 q 438 490 447 555 l 395 157 q 333 46 387 92 q 212 0 279 0 l 106 0 q -3 46 39 0 q -37 157 -45 92 l 7 490 q 69 602 16 555 q 190 648 123 648 l 296 648 z "},"õ":{"ha":576,"x_min":-45,"x_max":529,"o":"m 302 524 q 259 626 316 626 l 222 626 q 151 524 165 626 l 100 123 q 143 22 86 22 l 180 22 q 250 123 237 22 l 302 524 m 296 648 q 406 602 363 648 q 438 490 447 555 l 395 157 q 333 46 387 92 q 212 0 279 0 l 106 0 q -3 46 39 0 q -37 157 -45 92 l 7 490 q 69 602 16 555 q 190 648 123 648 l 296 648 m 529 899 l 453 815 q 338 753 405 762 q 225 783 271 743 l 229 779 l 229 779 l 222 785 q 87 806 140 855 l 34 774 l 29 770 l 104 854 q 205 906 141 895 q 307 899 262 916 q 349 873 328 890 q 465 853 412 819 l 524 896 l 529 899 z "},"ö":{"ha":576,"x_min":-45,"x_max":446,"o":"m 250 123 q 180 22 237 22 l 142 22 q 99 123 85 22 l 151 524 q 221 626 164 626 l 258 626 q 302 524 315 626 l 250 123 m 189 648 q 68 602 122 648 q 6 490 15 555 l -37 157 q -4 46 -45 92 q 105 0 38 0 l 212 0 q 332 46 279 0 q 395 157 386 92 l 437 490 q 405 602 446 555 q 296 648 363 648 l 189 648 m 427 810 q 406 773 424 789 q 367 758 389 758 l 330 758 q 295 773 309 758 q 284 810 281 789 l 290 855 q 311 892 293 877 q 350 908 328 908 l 387 908 q 422 892 408 908 q 433 855 435 877 l 427 810 m 233 810 q 212 773 230 789 q 173 758 195 758 l 136 758 q 100 773 114 758 q 90 810 87 789 l 96 855 q 116 892 98 877 q 156 908 134 908 l 193 908 q 228 892 214 908 q 239 855 241 877 l 233 810 z "},"ù":{"ha":572,"x_min":-68,"x_max":468,"o":"m -68 628 l -66 649 l 166 649 l 163 628 l 163 628 l 98 123 q 142 22 85 22 l 178 22 q 249 123 235 22 l 315 628 l 222 628 l 226 649 l 457 649 l 386 96 q 383 51 381 73 q 389 24 385 39 l 468 24 l 465 2 l 271 2 l 271 3 l 254 3 q 245 28 248 15 q 244 28 244 28 q 237 22 243 28 q 222 9 229 14 q 193 0 209 1 l 104 0 q -5 46 37 0 q -38 157 -46 92 l 23 628 l -68 628 m 153 916 q 187 943 165 935 q 228 940 209 949 l 258 924 q 345 861 290 909 q 401 788 412 805 l 377 747 q 279 753 367 730 q 176 789 206 772 l 144 804 q 121 835 126 814 q 129 876 117 856 l 153 916 z "},"ú":{"ha":572,"x_min":-68,"x_max":468,"o":"m 23 628 l -38 157 q -5 46 -46 92 q 104 0 37 0 l 193 0 q 222 9 209 1 q 237 22 229 14 q 244 28 243 28 q 245 28 244 28 q 254 3 248 15 l 271 3 l 271 2 l 465 2 l 468 24 l 389 24 q 383 51 385 39 q 386 96 381 73 l 457 649 l 226 649 l 222 628 l 315 628 l 249 123 q 178 22 235 22 l 142 22 q 98 123 85 22 l 163 628 l 163 628 l 166 649 l -66 649 l -68 628 l 23 628 m 416 877 q 412 836 422 857 q 382 806 403 815 l 347 790 q 233 755 312 774 q 134 749 140 732 l 120 789 q 195 863 114 806 q 298 926 264 909 l 334 941 q 374 944 355 951 q 401 917 395 937 l 416 877 z "},"û":{"ha":572,"x_min":-68,"x_max":468,"o":"m -68 628 l -66 649 l 166 649 l 163 628 l 163 628 l 98 123 q 142 22 85 22 l 178 22 q 249 123 235 22 l 315 628 l 222 628 l 226 649 l 457 649 l 386 96 q 383 51 381 73 q 389 24 385 39 l 468 24 l 465 2 l 271 2 l 271 3 l 254 3 q 245 28 248 15 q 244 28 244 28 q 237 22 243 28 q 222 9 229 14 q 193 0 209 1 l 104 0 q -5 46 37 0 q -38 157 -46 92 l 23 628 l -68 628 m 425 806 q 439 772 440 793 q 423 736 439 752 l 422 735 q 385 717 406 719 q 347 728 362 715 l 250 812 l 144 737 q 103 720 123 722 q 74 730 83 718 l 73 731 q 73 762 64 743 q 102 794 81 780 l 236 890 q 268 905 252 901 q 295 905 283 909 q 326 893 313 904 l 425 806 z "},"ü":{"ha":572,"x_min":-68,"x_max":468,"o":"m 23 628 l -38 157 q -5 46 -46 92 q 104 0 37 0 l 193 0 q 222 9 209 1 q 237 22 229 14 q 244 28 243 28 q 245 28 244 28 q 254 3 248 15 l 271 3 l 271 2 l 465 2 l 468 24 l 389 24 q 383 51 385 39 q 386 96 381 73 l 457 649 l 226 649 l 222 628 l 315 628 l 249 123 q 178 22 235 22 l 142 22 q 98 123 85 22 l 163 628 l 163 628 l 166 649 l -66 649 l -68 628 l 23 628 m 414 810 q 394 773 412 789 q 354 758 376 758 l 317 758 q 282 773 296 758 q 271 810 269 789 l 277 855 q 298 892 280 877 q 337 908 315 908 l 374 908 q 410 892 396 908 q 420 855 423 877 l 414 810 m 220 810 q 199 773 217 789 q 160 758 182 758 l 123 758 q 88 773 102 758 q 77 810 75 789 l 83 855 q 103 892 86 877 q 143 908 121 908 l 180 908 q 215 892 201 908 q 226 855 229 877 l 220 810 z "},"ý":{"ha":574,"x_min":-104,"x_max":455,"o":"m 455 649 l 224 649 l 221 628 l 313 628 l 247 123 q 245 115 247 122 l 245 115 q 244 108 245 113 q 177 22 229 22 l 140 22 q 96 123 83 22 l 161 628 l 161 628 l 164 649 l -68 649 l -71 628 l 21 628 l -12 372 l -12 372 l -40 157 q -7 46 -48 92 q 102 0 35 0 l 231 0 l 191 -308 q 121 -410 178 -410 l 83 -410 q 40 -308 26 -410 l 52 -216 l -88 -216 l -96 -274 q -63 -385 -104 -339 q 46 -431 -21 -431 l 153 -431 q 273 -385 220 -431 q 336 -274 327 -339 l 455 649 m 416 877 q 413 836 423 857 q 382 806 403 815 l 347 790 q 234 755 312 774 q 135 749 140 732 l 121 789 q 196 863 115 806 q 299 926 264 909 l 334 941 q 375 944 355 951 q 401 917 395 937 l 416 877 z "},"ÿ":{"ha":574,"x_min":-104,"x_max":455,"o":"m 455 649 l 224 649 l 221 628 l 313 628 l 247 123 q 245 115 247 122 l 245 115 q 244 108 245 113 q 177 22 229 22 l 140 22 q 96 123 83 22 l 161 628 l 161 628 l 164 649 l -68 649 l -71 628 l 21 628 l -12 372 l -12 372 l -40 157 q -7 46 -48 92 q 102 0 35 0 l 231 0 l 191 -308 q 121 -410 178 -410 l 83 -410 q 40 -308 26 -410 l 52 -216 l -88 -216 l -96 -274 q -63 -385 -104 -339 q 46 -431 -21 -431 l 153 -431 q 273 -385 220 -431 q 336 -274 327 -339 l 455 649 m 421 810 q 401 773 418 789 q 361 758 383 758 l 325 758 q 289 773 302 758 q 279 810 275 789 l 284 855 q 304 892 287 877 q 345 908 322 908 l 381 908 q 416 892 403 908 q 427 855 430 877 l 421 810 m 227 810 q 207 773 224 789 q 168 758 189 758 l 131 758 q 95 773 109 758 q 84 810 81 789 l 90 855 q 111 892 93 877 q 150 908 128 908 l 186 908 q 222 892 209 908 q 233 855 236 877 l 227 810 z "},"ˆ":{"ha":460,"x_min":72,"x_max":448,"o":"m 433 806 q 447 772 448 793 q 431 736 446 752 l 429 735 q 391 717 414 719 q 355 728 370 715 l 258 812 l 151 737 q 111 720 131 722 q 81 730 90 718 l 81 731 q 80 762 72 743 q 109 794 89 780 l 243 890 q 275 905 258 901 q 302 905 291 909 q 333 893 321 904 l 433 806 z "},"ˇ":{"ha":572,"x_min":90,"x_max":465,"o":"m 104 818 q 90 852 90 831 q 107 888 91 872 l 108 889 q 146 907 124 905 q 183 896 168 909 l 279 810 l 386 886 q 427 902 406 900 q 456 892 448 904 l 456 891 q 456 861 465 880 q 428 828 448 842 l 293 733 q 261 719 277 722 q 234 719 245 715 q 203 730 216 720 l 104 818 z "},"˚":{"ha":451,"x_min":182,"x_max":383,"o":"m 357 857 q 347 894 360 878 q 311 909 333 909 l 274 909 q 235 894 252 909 q 214 857 217 878 l 208 812 q 219 774 205 790 q 255 759 233 759 l 292 759 q 331 774 313 759 q 351 812 349 790 l 357 857 m 319 931 q 366 911 348 931 q 380 863 383 891 l 372 806 q 346 758 368 777 q 294 737 323 737 l 246 737 q 200 758 218 737 q 186 806 182 777 l 193 863 q 220 911 197 891 q 271 931 243 931 l 319 931 z "},"˜":{"ha":523,"x_min":36,"x_max":536,"o":"m 536 899 l 460 815 q 345 753 412 762 q 232 783 279 743 l 236 779 l 236 779 l 229 785 q 94 806 147 855 l 41 774 l 36 770 l 112 854 q 212 906 148 895 q 313 899 269 916 q 356 873 335 890 q 473 853 419 819 l 531 896 l 536 899 z "},"˝":{"ha":456,"x_min":62,"x_max":400,"o":"m 206 968 q 149 889 186 922 l 65 813 l 68 818 l 111 877 q 130 928 128 903 l 111 928 q 76 943 90 928 q 65 981 62 959 l 71 1025 q 92 1063 74 1048 q 131 1078 109 1078 l 168 1078 q 203 1063 190 1078 q 214 1025 217 1048 l 206 968 m 389 968 q 332 889 369 922 l 248 813 l 252 818 l 294 877 q 313 928 311 903 l 294 928 q 259 943 273 928 q 248 981 245 959 l 254 1025 q 275 1063 257 1048 q 314 1078 292 1078 l 351 1078 q 387 1063 373 1078 q 397 1025 400 1048 l 389 968 z "},"‘":{"ha":271,"x_min":62,"x_max":217,"o":"m 73 1040 q 131 1118 94 1085 l 216 1194 l 212 1189 l 169 1131 q 150 1079 152 1104 l 168 1079 q 204 1063 191 1079 q 214 1025 217 1048 l 208 981 q 187 944 205 959 q 148 928 170 928 l 111 928 q 76 945 90 929 q 65 982 62 960 l 73 1040 z "},"’":{"ha":271,"x_min":62,"x_max":217,"o":"m 206 968 q 149 889 186 922 l 65 813 l 68 818 l 111 877 q 130 928 128 903 l 111 928 q 76 943 90 928 q 65 981 62 959 l 71 1025 q 92 1063 74 1048 q 131 1078 109 1078 l 168 1078 q 203 1063 190 1078 q 214 1025 217 1048 l 206 968 z "},"‚":{"ha":288,"x_min":-34,"x_max":121,"o":"m 110 40 q 53 -39 90 -5 l -31 -115 l -28 -109 l 15 -51 q 34 0 32 -24 l 15 0 q -20 16 -7 0 q -31 54 -34 31 l -25 98 q -5 136 -22 120 q 35 151 13 151 l 71 151 q 107 136 94 151 q 117 98 121 120 l 110 40 z "},"“":{"ha":456,"x_min":61,"x_max":399,"o":"m 256 1032 q 314 1110 277 1078 l 399 1184 l 396 1179 l 352 1122 q 333 1071 335 1095 l 351 1070 q 386 1054 373 1070 q 396 1016 399 1038 l 389 972 q 368 935 386 949 q 328 920 351 919 l 292 920 q 257 937 270 921 q 247 975 243 952 l 256 1032 m 73 1036 q 132 1114 94 1081 l 217 1188 l 214 1183 l 170 1125 q 150 1074 153 1099 l 168 1074 q 203 1057 191 1074 q 214 1020 217 1042 l 207 975 q 186 938 203 954 q 146 923 168 923 l 109 924 q 74 940 87 924 q 64 978 61 956 l 73 1036 z "},"”":{"ha":456,"x_min":62,"x_max":400,"o":"m 206 968 q 149 889 186 922 l 65 813 l 68 818 l 111 877 q 130 928 128 903 l 111 928 q 76 943 90 928 q 65 981 62 959 l 71 1025 q 92 1063 74 1048 q 131 1078 109 1078 l 168 1078 q 203 1063 190 1078 q 214 1025 217 1048 l 206 968 m 389 968 q 332 889 369 922 l 248 813 l 252 818 l 294 877 q 313 928 311 903 l 294 928 q 259 943 273 928 q 248 981 245 959 l 254 1025 q 275 1063 257 1048 q 314 1078 292 1078 l 351 1078 q 387 1063 373 1078 q 397 1025 400 1048 l 389 968 z "},"„":{"ha":403,"x_min":-34,"x_max":317,"o":"m 110 40 q 53 -39 90 -5 l -31 -115 l -28 -109 l 15 -51 q 34 0 32 -24 l 15 0 q -20 16 -7 0 q -31 54 -34 31 l -25 98 q -5 136 -22 120 q 35 151 13 151 l 71 151 q 107 136 94 151 q 117 98 121 120 l 110 40 m 307 40 q 250 -39 286 -5 l 165 -115 l 169 -109 l 212 -51 q 231 0 229 -24 l 212 0 q 176 16 190 0 q 165 54 163 31 l 172 98 q 192 136 174 120 q 231 151 210 151 l 268 151 q 304 136 290 151 q 314 98 317 120 l 307 40 z "},"∫":{"ha":301,"x_min":-430,"x_max":540,"o":"m 389 1372 q 498 1326 456 1372 q 531 1215 540 1280 l 524 1156 l 383 1156 l 395 1248 q 351 1350 408 1350 l 315 1350 q 244 1248 258 1350 l 166 648 l 263 648 l 260 626 l 163 626 l 117 266 q 115 243 115 254 l 113 243 l 10 -555 q -52 -666 1 -620 q -173 -711 -106 -711 l -279 -711 q -389 -666 -347 -711 q -422 -555 -430 -620 l -414 -496 l -274 -496 l -286 -588 q -242 -690 -299 -690 l -205 -690 q -135 -588 -148 -690 l -7 394 q -5 417 -5 406 l -4 417 l 23 626 l -63 626 l -60 648 l 26 648 l 100 1215 q 162 1326 108 1280 q 283 1372 216 1372 l 389 1372 z "}}}
